<svg width="73" height="110" fill="none" xmlns="http://www.w3.org/2000/svg"><path d="M20.814 11.117c.956 0 3.31.046 3.845 1.007.7 1.253 4.132-.556 4.553 1.591.781-.778 3.871.444 4.458 1.196 1.57 2.01 3.77 2.077 5.14 4.49.563.992 1.097 1.934 1.4 3.02.393 1.41.316 4.132 1.391 5.265 2.579 2.72.926 3.77 2.454 6.814.402.8.432 1.346.432 2.237 0 .841-.64.86-1.33.86-1.47 0-2.714.184-2.714 1.936 0 1.888 1.324 2.924 2.178 4.482.718 1.312 1.59 2.6 1.235 4.19-.184.823-1.39 1.004-1.39 1.936 0 .705.745 1.152 1.053 1.703.428.767 1.296 1 1.676 1.867.5 1.138.845 1.956.683 3.252-.615 4.895-2.248 10.6-6.532 13.533-.805.55-1.8 1.17-2.41 1.944-.981 1.243-1.804 2.38-3.37 3.01-5.653 2.28-13.957 3.514-18.627 7.675-2.281 2.032-5.324 3.072-7.775 4.835-.94.675-2.082 1.178-2.92 2.013-.649.645-1.41 1.064-1.979 1.755-.754.918-4.696 16.064 0 17.103 1.5.332 1.514 1.104 2.998.809 2.377-.474 4.917-.499 7.344-.499 2.485 0 4.843-.453 7.24-1.05 2.09-.52 4.588-.189 6.747-.189 1.303 0 2.366.843 3.62.929.956.066 1.974.673 2.92.895 4.623 1.083 8.86-1.315 13.133-2.409 2.53-.648 4.614-2.414 7.084-3.097 2.287-.633 4.369-2.444 6.376-3.665 1.982-1.206 3.882-2.707 5.91-3.803 3.724-2.013 5.753-6.182 5.753-10.151 0-.989-.275-1.875-.31-2.822-.099-2.632-2.785-4.41-4.234-6.298-1.936-2.52-2.765-4.5-2.765-7.829 0-4.356.679-8.553.778-12.887.023-1.001.289-2.294.691-3.209.409-.93.254-2.017.786-2.96.888-1.57.71-3.407 1.288-5.067.244-.702.461-1.045 1.045-1.497 2.143-1.66 2.553-5.438 3.654-7.906.95-2.127.622-4.716.622-7.011 0-1.108-.155-2.176-.155-3.287 0-3.148-.467-6.227-.467-9.369 0-1.655-.35-3.206-.812-4.757-.421-1.417-.772-2.789-2.073-3.613-.688-.436-1.204-.614-1.932-.865l-.038-.013c-4.916-1.694-9.844-3.25-14.86-4.8A81.456 81.456 0 0043.882.208c-4.363-.844-8.525 1.153-12.77 1.153-3.733 0-6.39 2.996-9.485 4.457-.737.347-1.279.899-1.936 1.273-1.793 1.02-.844 4.026 1.123 4.026z" fill="#EAEDFB"/><path fill-rule="evenodd" clip-rule="evenodd" d="M67.364 25.511c.171-.929.258-1.904.24-2.95l.4-.006a15.057 15.057 0 01-.247 3.029l-.393-.073zm-.072-5.899a22.393 22.393 0 00-.325-1.458l.388-.1c.13.51.24 1.004.33 1.485l-.393.073zm-2 11.448c.474-.894.9-1.785 1.254-2.701l.373.143a25.283 25.283 0 01-1.274 2.746l-.353-.188zm-1.754 3.073l.276-.467.345.203-.277.469c-.406.688-.82 1.392-1.235 2.123l-.349-.197c.417-.735.834-1.442 1.24-2.13zm-2.646 13.725a24.61 24.61 0 00.061-3.004l.4-.017a25.191 25.191 0 01-.062 3.052l-.4-.03zm-.658-7.566c.21-.47.426-.924.645-1.367l.358.177c-.206.417-.409.845-.607 1.285.14.463.26.934.358 1.413l-.392.08a15.472 15.472 0 00-.37-1.448l-.023-.072.03-.068zm-.342 13.506c.24-.98.45-1.966.62-2.952l.394.067a43.408 43.408 0 01-.626 2.98l-.388-.095zm-1.743 5.784a72.19 72.19 0 00.94-2.873l.383.116c-.299.984-.618 1.95-.945 2.889l-.378-.132zm-2.151 5.657c.354-.883.73-1.827 1.108-2.817l.374.143c-.38.993-.756 1.939-1.111 2.823l-.371-.149zm.62 18.247a8.78 8.78 0 00-.08-1.43 16.57 16.57 0 00-.294-1.586l.39-.092c.117.497.22 1.035.3 1.624.07.51.097 1.008.084 1.494l-.4-.01zm-1.943 5.284a10.36 10.36 0 001.39-2.498l.374.142a10.763 10.763 0 01-1.442 2.594l-.322-.238zm.142-12.107c-.368-.773-.71-1.492-.92-2.267l.386-.105c.2.738.52 1.412.884 2.175.12.254.246.518.374.797l-.364.166c-.12-.263-.242-.517-.36-.766zm-.477-7.187c.153-.433.333-.907.532-1.419l.373.145c-.199.51-.377.98-.528 1.408a12.707 12.707 0 00-.451 1.545l-.391-.086a13.05 13.05 0 01.465-1.593zm0 0l.094.034zm-3.886 23.206c.814-.56 1.58-1.156 2.276-1.79l.269.297a21.91 21.91 0 01-2.318 1.822l-.227-.33zm-5.072 2.828a38.945 38.945 0 002.598-1.307l.194.35a39.39 39.39 0 01-2.626 1.32l-.166-.364zm-5.429 2.108c.885-.29 1.807-.615 2.745-.978l.144.373c-.944.365-1.873.694-2.764.986l-.125-.38zm-2.787.837l.106.386c-1.077.294-1.454.65-2.34 1.272l-.229-.328c1.206-.847.94-.914 2.463-1.33zm-7.508 3.106a20.63 20.63 0 002.627-.643l.123.381a21.07 21.07 0 01-2.678.655l-.072-.393zm-5.412.594a53.313 53.313 0 002.717-.214l.042.398a54.3 54.3 0 01-2.738.215l-.021-.399zm-5.459.1c.913.011 1.827.01 2.73-.005l.008.4a96.38 96.38 0 01-2.743.005l.005-.4zm-5.46-.197c.891.052 1.805.096 2.73.13l-.015.399a128.05 128.05 0 01-2.739-.13l.023-.399zm-4.086-.297c.442.038.895.076 1.359.112l-.031.399c-.465-.036-.92-.074-1.362-.113l.034-.398z" fill="#043CA1"/><path d="M22.893 103.826a1.582 1.582 0 01-1.585-1.579c0-.872.71-1.579 1.585-1.579.876 0 1.586.707 1.586 1.579s-.71 1.579-1.585 1.579z" fill="#F4F8FF"/><path fill-rule="evenodd" clip-rule="evenodd" d="M22.308 102.247c0 .316.258.579.585.579a.582.582 0 00.586-.579.582.582 0 00-.585-.579.582.582 0 00-.586.579zm-1 0c0 .872.71 1.579 1.585 1.579.876 0 1.586-.707 1.586-1.579s-.71-1.579-1.585-1.579c-.876 0-1.586.707-1.586 1.579z" fill="#022563"/><path d="M52.751 92.577a1.582 1.582 0 01-1.585-1.579c0-.872.71-1.579 1.585-1.579.876 0 1.586.707 1.586 1.579s-.71 1.579-1.586 1.579z" fill="#F4F8FF"/><path fill-rule="evenodd" clip-rule="evenodd" d="M52.166 90.998c0 .316.258.579.585.579a.582.582 0 00.586-.579.582.582 0 00-.586-.579.582.582 0 00-.585.579zm-1 0c0 .872.71 1.579 1.585 1.579.876 0 1.586-.707 1.586-1.579s-.71-1.579-1.586-1.579c-.875 0-1.585.707-1.585 1.579z" fill="#022563"/><path d="M57.925 63.153a1.582 1.582 0 01-1.586-1.579c0-.872.71-1.578 1.586-1.578.875 0 1.585.706 1.585 1.578 0 .872-.71 1.58-1.585 1.58z" fill="#F4F8FF"/><path fill-rule="evenodd" clip-rule="evenodd" d="M57.34 61.574c0 .316.257.58.585.58a.582.582 0 00.585-.58.582.582 0 00-.585-.578.582.582 0 00-.586.578zm-1 0c0 .872.71 1.58 1.585 1.58s1.585-.708 1.585-1.58c0-.872-.71-1.578-1.585-1.578-.876 0-1.586.706-1.586 1.578z" fill="#022563"/><path d="M60.942 41.585a1.582 1.582 0 01-1.585-1.579c0-.872.71-1.579 1.585-1.579.876 0 1.586.707 1.586 1.579s-.71 1.579-1.586 1.579z" fill="#F4F8FF"/><path fill-rule="evenodd" clip-rule="evenodd" d="M60.357 40.006c0 .316.258.579.585.579a.582.582 0 00.586-.579.582.582 0 00-.586-.579.582.582 0 00-.585.579zm-1 0c0 .872.71 1.579 1.585 1.579.876 0 1.586-.707 1.586-1.579s-.71-1.579-1.586-1.579c-.875 0-1.585.707-1.585 1.579zm2.5-25.965a3.444 3.444 0 003.453 3.435 3.444 3.444 0 003.453-3.435 3.444 3.444 0 00-3.453-3.434 3.444 3.444 0 00-3.453 3.434zm-1 0c0 2.45 1.993 4.435 4.453 4.435s4.453-1.986 4.453-4.435-1.994-4.434-4.453-4.434c-2.46 0-4.453 1.985-4.453 4.434z" fill="#022563"/><path d="M68.703 14.04l-2.344.76v2.454l-1.45-1.986-2.344.759 1.45-1.986-1.45-1.986 2.345.759 1.449-1.986v2.454l2.344.759z" fill="#022563"/><path fill-rule="evenodd" clip-rule="evenodd" d="M3.175 101.961a3.443 3.443 0 003.453 3.434 3.443 3.443 0 003.454-3.434 3.444 3.444 0 00-3.454-3.435 3.444 3.444 0 00-3.453 3.435zm-1 0c0 2.449 1.994 4.434 4.453 4.434 2.46 0 4.454-1.985 4.454-4.434 0-2.45-1.994-4.435-4.454-4.435s-4.453 1.986-4.453 4.435z" fill="#022563"/><path d="M10.021 101.961l-2.344.758v2.455l-1.449-1.986-2.344.759 1.448-1.986-1.448-1.986 2.344.758 1.449-1.985v2.454l2.345.759z" fill="#022563"/></svg>