<svg width="90" height="133" fill="none" xmlns="http://www.w3.org/2000/svg"><path d="M35.671 128.497c-.746 1.347-1.765-4.731-1.765-5.715.49-.491 1.381-.35 1.381-1.125 0-.939-.192-1.113-.815-1.675l-.01-.009c-.51-.461-1.75.038-2.378.038-.452 0-2.148.13-2.311-.442-.224-.786.707-2.123 1.199-2.675.333-.374.69-.673 1.035-1.039.325-.345.908-.801 1.113-1.212.35-.704 1.134-2.162.441-2.944-.491-.555-.5-.913-1.381-.866-.585.031-1.863 1.003-2.062-.096-.19-1.054.282-1.875.336-2.848.021-.389.556-.693.729-1.039.2-.403.134-.856.134-1.299 0-.695-2.895-1.268-3.453-1.299-.677-.038-1.434-.662-2.071-1.001-.539-.286.06-2.096.268-2.453.919-1.58 2.84-.95 2.84-3.04 0-.328.24-.665.383-.953.45-.902.823-2.01 1.784-2.511 1.29-.673 2.102-1.743 3.567-2.03 1.29-.253 2.551-.472 3.856-.173.5.115.815.558 1.323.558h1.678a1.62 1.62 0 001.573-1.309c.114-.624-.183-4.751 1.2-4.022.788.417 1.905.984 2.33-.124.44-1.15-.163-1.595-.643-2.338-.468-.727-1.045-1.534-.307-2.348.47-.518.729-1.25 1.247-1.77.369-.37.776-.755.988-1.251.309-.724 1.645-1.36 1.736-2.117.042-.357.382-.453.517-.76.223-.503.173-1.051.173-1.587 0-2.231-3.32-.34-3.798.74a22.23 22.23 0 01-2.071 3.685c-.639.93-1.71 1.944-2.84 1.944-1.763 0-3.284 2.271-5.063.308-.368-.406.184-2.198.125-2.733-.137-1.239-2.158-.623-3.012-1.289-.768-.6-1.835-.61-1.812-1.809.03-1.565.82-3.483 2.628-3.483.962 0 1.612.865 2.55 1.126.819.228 2.496.07 2.897-.78.533-1.128 1.396-.489 2.273-1.038 1.913-1.2 4.231-4.709 5.745-5.234 1.798-.625 3.414-.908 3.414-3.002 0-1.05-.452-5.446 1.208-5.446h2.8c.864 0 1.348-.584 2.245-.307 1.025.316 1.928.438 2.896.923.458.23.657 1.005 1.036 1.386.334.334.607.63.873 1.029 1.525 2.295-1.166 4.519-2.81 5.802-.716.558-.791 2.174.115 2.434.351.1.222.516.278.77.094.423.855.77 1.199.952.82.434 1.15.866 2.11.866h.067c.854 0 1.577 0 2.398-.25.89-.272 1.404-.597 2.157-1.174.575-.44.9-.828 1.63-.828h1.91c.3 0 .455.329.776.347.938.052.9 1.385 1.899 1.385 1.281 0 2.252-.934 3.472-1.125.983-.154 1.943-.055 2.915-.299.277-.069 1.434-.02 1.554-.23.533-.936 2.072-.832 1.688-2.329-.34-1.328-1.304-1.039-2.455-1.039-1.095 0-2.25.173-3.376.173-.87 0-1.142-.988-1.554-1.597-1.386-2.05-1.03-4.74-2.34-6.889-.312-.513-.87-.938-.93-1.549-.07-.696.378-1.353.547-2.01.278-1.086.652-1.672.652-2.81 0-.742-.285-1.257-.653-1.905-.213-.378-.805-.95-.891-1.337-.255-1.15-.829-2.44-.873-3.685-.04-1.108.422-1.348 1.112-2.04.592-.593.119-1.695.278-2.415.285-1.283.914-1.888 2.235-1.818.808.043 1.362 1.492 1.726 2.04.677 1.018 1.402 1.682 2.321 2.472.373.321-.07 1.052-.25 1.337-.273.436-.45 1.413-.507 1.925-.128 1.154.26 1.672 1.064 2.405.457.417 1.896.694 2.283.029.606-1.042.698-2.6.096-3.666-.376-.664-.51-1.35-.95-2.03-.438-.675-.656-1.426-1.084-2.088-.641-.992-.036-2.148.384-3.03.586-1.23 1.297-1.46.969-2.944-.259-1.167-1.218-2.09-1.218-3.377 0-.5.539-1.463.863-1.828.536-.606.422-1.72.336-2.502-.194-1.75-1.719-1.818-3.27-1.732-2.422.135-2.034 4.33-4.24 4.33-1.475 0-1.381-.349-1.458-1.732-.058-1.045-.21-1.572.346-2.598.508-.94 1.45-1.652 1.985-2.607.621-1.108.767-2.545 1.813-3.445.995-.856 1.898-.863 1.898-2.376 0-1.074-.316-2.592.346-3.521.521-.733 1.546-1.12 2.416-.732.403.18 1.146.187 1.593.299 1.156.29 2.301.467 3.414.914.951.382 2.622-.105 3.193-.934.564-.816.447-1.883.298-2.8-.174-1.064-.97-1.241-1.774-1.78-.914-.61-1.835-.855-2.916-.855-.895 0-1.627.387-2.522.48-1.435.151-2.3-.692-3.626-.654-1.374.04-6.291 3.696-6.291 5.629 0 .972.677 1.963.854 2.934.134.743-.431 2.216-.854 2.829-.45.653-1 .996-1.515 1.462-.328.296-.211.93-.211 1.309 0 .687-1.763 1.489-2.158 2.203-.498.9-.25 2.302-.988 3.07-1.018 1.058-2.057.947-3.338.48-.667-.243-.732-1.696-1.112-2.29-.523-.815-.349-1.67-.997-2.347-1.052-1.098-2.618-.262-3.396.74-.595.768-.943 1.909-1.908 2.339-1.493.665-3.814.03-4.747-1.347-.302-.446-.722-1.326-.69-1.867.023-.417.517-.478.517-1.03 0-1.503-2.424-1.05-3.28-.644-.877.417-.935 2.375-1.813 3.06-1.152.899-3.537-.97-4.392-1.56-.875-.603-1.643-1.586-2.426-2.327-.709-.671-.745-1.624-.69-2.598.045-.836 1.749-.716 1.543-1.645-.106-.48-.335-.78-.335-1.338v-1.087c0-.825 1.163-.727 1.515-1.472.795-1.685-1.243-1.99-2.12-2.675-.575-.449-1.487-.597-1.947-1.173-.343-.43.135-1.943.135-2.521 0-1.676-.843-4.745-2.551-5.407-1.028-.399-2.396-.018-3.395.346-.786.287-.46 2.015-.269 2.588.179.538.64 1.196.134 1.703-.54.541-.335 1.774.47 1.953.923.206.228 2.105.048 2.627-.368 1.067-.846.753-1.688.654-.751-.089.025-1.678-.95-1.895-1.215-.271-4.647.257-5.475-.491-.567-.511-.861-1.241-1.42-1.77-1.282-1.215-4.44.212-3.855 2.116.2.653.616 1.25 1.17 1.655.503.368 1.219.223 1.64.645.645.647.613 2.062.172 2.848-.604 1.078-1.21 1.855-.91 3.204.227 1.025.432 1.308 1.476 1.308.264 0 1.082-1.14 1.238-.596.434 1.526 1.62 3.24 2.857 4.233.66.529 1.411.994 2.254 1.25.46.14.96 1.435 1.266 1.81.228.279 1.314 1.204 1.39 1.548.283 1.275-.61 1.158-1.447.76-1.106-.523-1.922-.173-3.031-.173-1.224 0-2.647-.21-3.855.01-.838.153-1.406 1.52-1.851 2.078-.745.934-1.551 1.331-2.714 1.376-1.103.043-1.121 1.02-1.075 1.905.014.26.464.491.69.52.223.027.645 1.16.778 1.385.667 1.133 1.359 1.706 2.541 2.117.844.292 4.571-.006 2.302 1.443-.537.342-.871.646-.134.875.877.273 2.082.791 2.416 1.761.33.954-.197 1.352-.997 1.559-.92.237-1.514.385-2.513.385-.578 0-1.744-.248-2.148.26-.79.99-.033 4.178.432 5.204.175.387.259.952.259 1.376 0 .536-.261.406-.48.78-.233.397-1.53 1.402-1.976 1.077-.55-.402.387-2.396-1.333-1.857-.999.313-1.134.818-1.553 1.8-.252.588-.371 1.454-1.084 1.712-.697.252-1.337.247-2.033.596-.646.324-.341 2.04-.95 2.04-.388 0-.885-.084-1.227-.27-.412-.222-1.168-.917-1.621-.942-.689-.039-2.3 1.298-2.762 1.818-.57.643-.07 1.454.431 2.069.783.96 1.496 3.56-.47 3.56-.755 0-2.364.24-2.56 1.125-.124.56-.743 1.3-1.295 1.3-2.187 0-1.81 2.898-.585 3.819.833.627 1.44 1.002 2.062 1.857.342.469 1.01 1.157 1.036 1.809.07 1.833-2.417 1.703-2.417 3.444 0 1.214.263 1.793.652 2.886.195.549 1.578 2.099.94 2.675-.524.473-1.552.38-2.024 1.01-.465.623-.705 1.806-.393 2.588.467 1.171.695 1.559 1.947 1.559.906 0 1.985-.042 1.985-1.212 0-.776.048-1.752.384-2.425.301-.604 1.658-1.025 1.688-1.559.06-1.072.475-1.039 1.467-1.039.41 0 1.207.37 1.602.52.593.225.797.424.72 1.049-.186 1.483-1.221 2.434-1.68 3.761-.214.623.136 2.021.74 2.29.918.41 2.002.117 2.982.481.764.284 1.559 1.032 1.592 1.905.064 1.67-3.32 3.385-1.295 4.965.573.447 1.803 1.05.95 2.001-.704.785-1.34 1.294-1.075 2.425.095.401-.093.888.211 1.212.301.32 1.028.474 1.2.789.357.658.438 1.233.268 1.982-.141.623-.072 1.512-.297 2.078-.265.663-.67 2.078-1.602 2.078-1.104 0-1.35.862-1.813 1.722-.738 1.375-1.165 1.049-2.455 1.049-.907 0-.948-.765-1.208-1.385-.235-.559-.771-2.131-1.592-1.896-.623.179-.787 2.08-.787 2.588 0 1.277.093 2.209-.556 3.329-.306.528-.518 1.072-1.132 1.309-.208.08-.676.415-.719.654-.186 1.028 1.307 3.816-.527 3.714-.822-.046-1.805-.415-2.657-.087-.779.301-.093 1.472.499 1.472.706 0 1.686-.192 2.12.52.252.415 1.2 1.4.69 2.04-.498.623-.166 1.691-.911 2.289-.43.346-1.295 1.049-1.295 1.597 0 .57-.128.828.518.828.814 0 1.32-.147 2.081-.433a67.317 67.317 0 003.433-1.376c.845-.371 1.564-.706 1.564-1.693 0-.499-.233-1.867.518-1.867.762 0 1.663.217 2.167-.433.469-.604 1.143-.952 1.899-.952.751 0 3 2.379 3.49 2.982.364.446.71 1.822 1.286.732.686-1.301 2.705 1.809 2.973 2.347.452.907.684.853 1.477 1.251.639.32 1.191.86 1.822 1.212.397.221 1.308 1.204 1.458 1.617.13.36.598.749.68 1.039.085.297.139.712.356.943.53.563.932 1.385 1.812 1.385.905 0 1.725-.034 2.58-.346 1.833-.669 3.332-1.77 5.102-2.56 1.189-.529 2.483-1.597 3.894-1.597 1.359 0 1.54-.709 1.458-1.77-.075-.975-1.804.038-2.417.038-1.587 0-3.08.194-3.932 1.732z" fill="#EAEDFB"/><path fill-rule="evenodd" clip-rule="evenodd" d="M44.792 49.805a11.21 11.21 0 00-.266-1.35l.388-.1c.13.507.22.972.275 1.4l-.397.05zm-2.403 4.029c.963-.276 1.684-.711 2.089-1.45l.35.192c-.476.87-1.314 1.352-2.33 1.642l-.11-.384zm-3.638.506c.32-.026.633-.051.938-.079l.036.399c-.313.028-.63.054-.95.08-.594.048-1.2.098-1.812.166l-.044-.398a63.479 63.479 0 011.832-.168zm-7.19 1.773c.801-.517 1.683-.867 2.597-1.114l.104.386c-.885.24-1.726.575-2.484 1.064l-.217-.336zm-2.513 10.95c.355-.84.573-1.811.579-2.994l.4.002c-.007 1.233-.234 2.256-.61 3.147l-.369-.156zm-.202-7.72c.204-.46.435-.875.69-1.25l.33.224a7.636 7.636 0 00-.624 1.12c.156.514.287 1.004.395 1.47l-.39.09c-.11-.478-.246-.982-.41-1.515l-.021-.071.03-.069zm-2.578 11.39c.37-.371.732-.738 1.074-1.118l.298.268c-.35.388-.718.761-1.089 1.133l-.138.14c-.326.326-.651.652-.97.991l-.292-.273c.323-.344.654-.675.979-1.001l.138-.14zm-3.704 5.153c.187-.53.41-1.017.661-1.467l.35.194a9.005 9.005 0 00-.634 1.406c-.18.51-.336 1.023-.47 1.537l-.387-.101c.137-.525.296-1.048.48-1.569zm.094.033l-.094-.033m.483 28.1c.114-.852.148-1.941.06-3.477l.398-.023c.09 1.551.057 2.668-.061 3.553l-.397-.053zm-.268-6.975c-.065-.546-.14-1.127-.225-1.748-.073-.538-.149-1.073-.224-1.608l.396-.056c.076.535.151 1.071.225 1.61.085.623.16 1.206.225 1.754l-.397.048zm-1.395 11.942c.2-.667.407-1.202.605-1.678l.37.154c-.196.468-.398.989-.592 1.638l-.383-.114zm.499-18.517a76.579 76.579 0 01-.362-3.235l.398-.035a80.21 80.21 0 00.36 3.219l-.396.051zm-.53-6.494a28.17 28.17 0 01.148-3.265l.398.042a27.825 27.825 0 00-.146 3.22l-.4.003z" fill="#043CA1"/><path fill-rule="evenodd" clip-rule="evenodd" d="M16.694 114.13a3.715 3.715 0 003.709 3.721 3.715 3.715 0 003.705-3.724 3.715 3.715 0 00-3.709-3.721 3.715 3.715 0 00-3.705 3.724zm-1 .001a4.715 4.715 0 004.71 4.72c2.6-.001 4.706-2.117 4.704-4.725a4.715 4.715 0 00-4.71-4.72c-2.6.001-4.706 2.117-4.704 4.725z" fill="#022563"/><path d="M23.988 114.126l-2.478.809.001 2.615-1.533-2.115-2.478.81 1.531-2.116-1.533-2.114 2.479.806 1.53-2.115.002 2.614 2.479.806z" fill="#022563"/><path fill-rule="evenodd" clip-rule="evenodd" d="M41.015 44.08a3.715 3.715 0 003.71 3.721 3.715 3.715 0 003.705-3.724 3.715 3.715 0 00-3.71-3.72 3.715 3.715 0 00-3.705 3.724zm-1 .001a4.715 4.715 0 004.71 4.72 4.715 4.715 0 004.705-4.725 4.715 4.715 0 00-4.71-4.72 4.715 4.715 0 00-4.705 4.725z" fill="#022563"/><path d="M48.31 44.077l-2.478.809V47.5L44.3 45.386l-2.478.809 1.53-2.116-1.532-2.114 2.479.806 1.53-2.115.002 2.614 2.478.806z" fill="#022563"/><path d="M22.861 99.387a1.679 1.679 0 01-1.677-1.68c0-.93.75-1.682 1.675-1.683.926 0 1.677.752 1.677 1.68 0 .93-.75 1.682-1.675 1.683z" fill="#F4F8FF"/><path fill-rule="evenodd" clip-rule="evenodd" d="M22.184 97.706c0 .379.306.68.676.68.37 0 .676-.302.676-.681a.679.679 0 00-.676-.68.679.679 0 00-.676.68zm-1 0c0 .929.751 1.681 1.677 1.68.926 0 1.675-.753 1.675-1.681a1.677 1.677 0 10-3.352.001z" fill="#022563"/><path d="M29.137 62.394a1.679 1.679 0 01-1.677-1.68c0-.929.75-1.682 1.676-1.683.925 0 1.676.752 1.676 1.68 0 .93-.75 1.683-1.675 1.683z" fill="#F4F8FF"/><path fill-rule="evenodd" clip-rule="evenodd" d="M28.46 60.713c0 .38.306.681.677.681.37 0 .676-.302.675-.682a.679.679 0 00-.676-.68.679.679 0 00-.675.681zm-1 0a1.68 1.68 0 001.677 1.681c.926 0 1.676-.754 1.675-1.682a1.676 1.676 0 10-3.351.002z" fill="#022563"/></svg>