<svg width="91" height="99" fill="none" xmlns="http://www.w3.org/2000/svg"><path d="M.286 7.197c.478 1.702.735 2.843.027 4.575-.915 1.627.41 6.281.98 7.89 1.395 3.94 3.088 8.553 4.709 12.259.338.773.92 1.459 1.415 1.9 1.856 1.65 2.094 6.707 4.11 7.902.79.468 1.674.4 2.504.327 1.698-.151 3.36-.436 5.083-.436.89 0 2.035-.09 2.878.327 3.542 1.75 11.28 6.258 13.344 11.763 1.792 4.78 7.109 6.635 8.03 11.218.563 2.805 1.575 5.825 2.51 8.229.726 1.863 2.266 2.594 3.314 3.642 1.306 1.307 1.494 4.133 1.068 6.596-.147.85-.355 1.757-.19 2.71.148.857.584 1.309.7 2.24.17 1.35-.563 1.757-1.034 2.407-.457.633-1.578 1.253-1.871 2.058-.445 1.224-2.029 1.94-1.245 4.03.567 1.514 1.896 1.274 2.688 1.9.602.475 1.575.169 2.231.169.658 0 1.512.26 2.117-.218.602-.476 1.436-.604 2.082-.86.525-.207 1.266-2.078 1.286-3.012.053-2.458.122-4.891.122-7.346 0-2.418 1.504-3.92 2.055-5.99.46-1.727-.313-3.534-.088-5.337.16-1.28 1.002-1.923 1.51-2.626.637-.881 1.625-1.587 2.062-2.929.807-2.479 1.687-4.643 3.457-5.215.44-.143 1.248-.184 1.599.302.343.474 1.463.167 1.898.121 1.178-.123 1.302-3.485 2.518-3.485 2.955 0 2.722-1.527 3.879-5.228.397-1.273.744-1.525 1.503-1.525 1.275 0 2.35 1.307 3.613 1.307.558 0 1.411-.063 1.899-.544.397-.393.975-.15 1.408-.497 1.056-.845.905-3.402 1.892-4.405.282-.286.373-.67.742-.87.317-.174.724-.817.987-1.199.573-.835 1.226-1.993 1.891-2.553 1.369-1.153.98-4.976.98-7.25 0-.94-.731-2.41-1.041-3.146-.297-.704-.917-1.692-1.409-1.924-.67-.316-1.406-.553-2.055-.968-1.5-.96-1.81-6.322-2.94-8.18-.536-.885-1.347-1.256-1.959-2.01-.593-.73-.913-2.104-1.558-2.613-1.548-1.224-2.487-2.79-3.613-4.793-1.023-1.82-2.244-3.04-3.607-3.92-1.42-.919-2.552-3.045-4.028-3.655-1.924-.796-3.897-.798-5.77-2.009-2.46-1.59-4.953-3.645-7.417-5.349C53.907-.16 52.006.01 50.258.01c-1.28 0-2.501 1.325-3.593 2.384-1.705 1.654-1.905 5.689-3.606 7.37-2.408 2.38-3.394 2.318-5.73 3.703-1.361.807-2.61 1.138-4.02 1.138-1.91 0-4.469.876-6.227-.545-2.398-1.938-6.18-5.12-8.887-5.12-.451 0-1.23-.453-1.585-.98-.35-.519-.558-1.246-.987-1.585-.857-.678-2.382-.861-3.368-.472-.86.34-1.821 1.342-2.51 2.384-.664 1.004-2.194.958-3.063.872-.468-.047-1.103-3.435-1.231-4.236-.166-1.032-.56-1.428-1.096-1.428-1.006 0-1.861-.852-2.81-.641C.05 3.185-.285 5.166.286 7.197z" fill="#EAEDFB"/><path fill-rule="evenodd" clip-rule="evenodd" d="M65.327 35.876c.215-.96.367-1.9.442-2.81l.398.034a20.87 20.87 0 01-.45 2.863l-.39-.087zm.4-5.632c-.06-.473-.15-.933-.27-1.378l-.017-.064.024-.061c.23-.585.201-.957.043-1.195l.332-.222c.258.385.247.895.021 1.5.118.445.205.902.264 1.37l-.397.05zm-2.14 11.062c.36-.9.69-1.797.979-2.685l.38.123a43.543 43.543 0 01-.988 2.71l-.371-.148zm-.576-14.253c-.79.062-1.728.214-2.787.435l-.082-.392c1.068-.223 2.025-.378 2.837-.442l.032.398zm-1.794 19.464c.426-.852.842-1.715 1.239-2.583l.363.167c-.398.872-.816 1.74-1.244 2.595l-.358-.179zm-2.676 5.07c.448-.818.905-1.66 1.362-2.522l.353.187c-.457.864-.916 1.709-1.364 2.527l-.35-.192zm-2.751 5.05c.414-.79.876-1.638 1.366-2.531l.35.192a154.9 154.9 0 00-1.362 2.524l-.354-.186zm1.661-28.492c-.875.227-1.796.48-2.754.75l-.109-.385c.96-.271 1.884-.525 2.763-.752l.1.387zm-3.446 32.436c.126-.407.302-.861.517-1.355l.367.16a13.04 13.04 0 00-.502 1.314c-.137.438-.264.829-.382 1.18l-.379-.128c.117-.348.243-.736.379-1.17zm-1.33 8.797l-.047-.393.397-.048a1059.491 1059.491 0 00.149 1.225l-.397.048a745.6 745.6 0 00-.101-.832zm-.255-4.149c.069-.372.191-.722.364-1.179l.374.142c-.172.456-.283.776-.345 1.11-.061.331-.076.685-.044 1.204l-.4.024c-.032-.537-.019-.926.05-1.3zm-2.874-34.828l-.323.096-.114-.384.323-.096c.817-.242 1.624-.482 2.416-.714l.113.383c-.791.233-1.598.472-2.415.715zm-3.062.904c-.913.267-1.83.533-2.745.791l-.108-.385a294.57 294.57 0 002.74-.79l.113.384zm-5.498 1.548c-.937.25-1.865.486-2.775.705l-.093-.39c.906-.217 1.83-.453 2.766-.702l.102.387zm-5.564 1.326c-.98.199-1.926.367-2.829.496l-.057-.396a49.93 49.93 0 002.807-.492l.08.392zm-5.686.776c-1.073.045-2.048.003-2.892-.15l.072-.393c.805.146 1.748.188 2.803.144l.017.4zm-5.52-1.422a2.966 2.966 0 01-.686-1.351l.39-.088c.105.466.307.853.593 1.172l-.298.267z" fill="#043CA1"/><path fill-rule="evenodd" clip-rule="evenodd" d="M17.902 29.556c.001 2.02 1.417 3.432 2.902 3.431 1.485 0 2.9-1.414 2.898-3.434 0-2.02-1.416-3.432-2.901-3.431-1.485 0-2.9 1.414-2.899 3.434zm-1 0c.001 2.45 1.748 4.433 3.902 4.431 2.154 0 3.9-1.987 3.898-4.435 0-2.448-1.748-4.432-3.902-4.43-2.154.001-3.899 1.987-3.898 4.435z" fill="#022563"/><path d="M23.774 29.553l-2.053.76.001 2.453-1.27-1.984-2.053.76 1.268-1.987-1.27-1.984 2.054.757 1.268-1.986.001 2.454 2.054.757z" fill="#022563"/><path fill-rule="evenodd" clip-rule="evenodd" d="M50.402 74.623c.001 2.02 1.417 3.432 2.902 3.431 1.485 0 2.9-1.414 2.898-3.434 0-2.02-1.416-3.432-2.901-3.431-1.486 0-2.9 1.414-2.899 3.434zm-1 .001c.001 2.448 1.748 4.432 3.902 4.43 2.154 0 3.9-1.987 3.898-4.435 0-2.448-1.748-4.431-3.902-4.43-2.154.001-3.899 1.987-3.898 4.435z" fill="#022563"/><path d="M56.274 74.62l-2.053.76.001 2.453-1.27-1.984-2.052.76 1.267-1.987-1.27-1.984 2.054.757 1.268-1.986.001 2.454 2.054.757z" fill="#022563"/><path d="M65.09 30.493c-.767 0-1.389-.706-1.39-1.577 0-.872.622-1.579 1.389-1.58.766 0 1.388.707 1.389 1.578 0 .872-.621 1.579-1.388 1.58z" fill="#F4F8FF"/><path fill-rule="evenodd" clip-rule="evenodd" d="M64.859 29.37c.084.097.168.123.23.123.063 0 .147-.026.231-.123a.69.69 0 00.158-.455.69.69 0 00-.158-.456c-.085-.096-.168-.122-.231-.122s-.146.026-.23.123a.69.69 0 00-.158.455c0 .2.071.357.158.456zm-1.158-.454c0 .871.622 1.578 1.389 1.577.767 0 1.388-.707 1.388-1.579s-.623-1.578-1.39-1.577c-.766 0-1.388.707-1.387 1.579z" fill="#022563"/><path d="M40.39 34.187c-.767 0-1.389-.706-1.39-1.577 0-.872.621-1.579 1.388-1.58.767 0 1.39.706 1.39 1.578 0 .872-.621 1.579-1.388 1.579z" fill="#F4F8FF"/><path fill-rule="evenodd" clip-rule="evenodd" d="M40.158 33.064c.085.097.169.123.231.123.063 0 .147-.027.231-.123a.69.69 0 00.158-.455.69.69 0 00-.158-.456c-.085-.096-.169-.122-.231-.122-.063 0-.147.026-.231.123a.69.69 0 00-.157.455c0 .2.07.357.157.455zm-1.157-.454c0 .871.622 1.578 1.389 1.577.767 0 1.388-.707 1.388-1.579s-.623-1.578-1.39-1.577c-.767 0-1.388.707-1.387 1.579z" fill="#022563"/><path d="M54.69 60.784c-.767 0-1.389-.706-1.39-1.577 0-.872.622-1.579 1.389-1.58.767 0 1.389.706 1.389 1.578 0 .872-.621 1.579-1.388 1.58z" fill="#F4F8FF"/><path fill-rule="evenodd" clip-rule="evenodd" d="M54.459 59.661c.084.097.168.123.23.123.063 0 .147-.026.232-.123a.69.69 0 00.157-.455.69.69 0 00-.158-.456c-.085-.096-.168-.122-.23-.122-.063 0-.147.026-.232.123a.69.69 0 00-.157.455c0 .2.071.357.158.455zm-1.158-.454c0 .871.622 1.578 1.39 1.577.766 0 1.387-.707 1.387-1.579 0-.871-.623-1.578-1.39-1.577-.766 0-1.388.707-1.387 1.579z" fill="#022563"/></svg>