<svg width="48" height="48" fill="none" xmlns="http://www.w3.org/2000/svg"><path fill-rule="evenodd" clip-rule="evenodd" d="M11 18c0-7.18 5.82-13 13-13s13 5.82 13 13c0 6.005-3.14 12.212-6.164 16.823a64.452 64.452 0 01-4.19 5.668 55.877 55.877 0 01-1.777 2.044l-.105.113-.029.03-.008.008-.002.002v.001L24 42l-.725.69v-.002l-.002-.002-.008-.008-.029-.03-.105-.113a55.877 55.877 0 01-1.776-2.044 64.452 64.452 0 01-4.191-5.668C14.14 30.212 11 24.005 11 18zm13 24l-.724.69.724.76.724-.76L24 42zm0-1.49c.297-.336.672-.772 1.105-1.294a62.426 62.426 0 004.059-5.49C32.14 29.19 35 23.397 35 18c0-6.075-4.925-11-11-11s-11 4.925-11 11c0 5.395 2.86 11.189 5.836 15.727A62.426 62.426 0 0024 40.51z" fill="#022563"/><path fill-rule="evenodd" clip-rule="evenodd" d="M21 18a3 3 0 116 0 3 3 0 01-6 0zm3-1a1 1 0 100 2 1 1 0 000-2z" fill="#022563"/></svg>