<svg width="24" height="24" fill="none" xmlns="http://www.w3.org/2000/svg"><path fill-rule="evenodd" clip-rule="evenodd" d="M1.5 5a.5.5 0 01.5-.5h20a.5.5 0 01.5.5v14a.5.5 0 01-.5.5H2a.5.5 0 01-.5-.5V5zm1 .5v13h19v-13h-19z" fill="#fff"/><path fill-rule="evenodd" clip-rule="evenodd" d="M1.666 5.372l.668-.744 9.666 8.7 9.666-8.7.668.744L12 14.672l-10.334-9.3z" fill="#fff"/><path fill-rule="evenodd" clip-rule="evenodd" d="M9.376 11.33l-7 8-.752-.66 7-8 .752.66zm6-.66l7 8-.753.66-7-8 .753-.66z" fill="#fff"/></svg>