<svg width="20" height="21" fill="none" xmlns="http://www.w3.org/2000/svg"><path fill-rule="evenodd" clip-rule="evenodd" d="M7.585.189A1 1 0 018 1v16a1 1 0 01-.684.949l-6 2A1 1 0 010 19V3a1 1 0 01.684-.949l6-2a1 1 0 01.9.138zM2 3.72v13.892l4-1.334V2.387L2 3.721zM19.585.189A1 1 0 0120 1v16a1 1 0 01-.684.949l-6 2A1 1 0 0112 19V3a1 1 0 01.684-.949l6-2a1 1 0 01.9.138zM14 3.72v13.892l4-1.334V2.387l-4 1.334z" fill="#000"/><path fill-rule="evenodd" clip-rule="evenodd" d="M13.021 19.212a.966.966 0 01-1.226.6L6.913 18.14a.966.966 0 01.626-1.827l4.882 1.673a.966.966 0 01.6 1.226zm0-15.999a.966.966 0 01-1.226.6L6.913 2.14A.966.966 0 017.54.313l4.882 1.673a.966.966 0 01.6 1.227z" fill="#000"/></svg>