<svg width="20" height="20" fill="none" xmlns="http://www.w3.org/2000/svg"><path fill-rule="evenodd" clip-rule="evenodd" d="M11.262 16.59c1.59.87 3.054 1.427 4.09 1.76.755.243 1.583.008 2.179-.588l.386-.386a.5.5 0 00-.068-.764l-3.55-2.476a.5.5 0 00-.64.056l-2.397 2.397zm-.896-.518a.48.48 0 01.021-.022l2.565-2.565a1.5 1.5 0 011.919-.17l3.55 2.477a1.5 1.5 0 01.203 2.291l-.386.386c-.825.826-2.035 1.205-3.193.833-2.102-.677-5.943-2.252-9.137-5.446C2.714 10.663 1.14 6.822.463 4.72.09 3.562.47 2.352 1.295 1.527l.387-.386a1.5 1.5 0 012.29.202L6.45 4.894a1.5 1.5 0 01-.17 1.919L3.715 9.377a.517.517 0 01-.022.021 19.995 19.995 0 002.922 3.751 19.993 19.993 0 003.751 2.923zm-7.19-7.57l2.396-2.396a.5.5 0 00.057-.64l-2.477-3.55a.5.5 0 00-.763-.068l-.387.386c-.595.595-.83 1.424-.587 2.179.333 1.035.89 2.5 1.76 4.09z" fill="#fff"/></svg>