<svg width="73" height="110" viewBox="0 0 73 110" fill="none" xmlns="http://www.w3.org/2000/svg">
<path d="M20.8144 11.117C21.7698 11.117 24.1233 11.1634 24.659 12.1236C25.3581 13.3767 28.7913 11.5682 29.212 13.7151C29.9932 12.9372 33.0831 14.1595 33.67 14.911C35.24 16.921 37.4403 16.9877 38.8106 19.4018C39.373 20.3927 39.907 21.3348 40.2102 22.4215C40.6034 23.831 40.5262 26.5532 41.6011 27.6865C44.1798 30.4054 42.5266 31.4568 44.0548 34.5002C44.4567 35.3006 44.4867 35.8456 44.4867 36.737C44.4867 37.5782 43.8461 37.5973 43.1563 37.5973C41.6876 37.5973 40.4434 37.7806 40.4434 39.533C40.4434 41.4208 41.7672 42.4573 42.6206 44.0152C43.3393 45.3272 44.2108 46.6155 43.8561 48.2049C43.6723 49.0282 42.4651 49.2087 42.4651 50.1406C42.4651 50.8459 43.2115 51.2927 43.5191 51.844C43.9473 52.6115 44.8145 52.8444 45.1952 53.7109C45.6952 54.849 46.0403 55.6673 45.8777 56.9628C45.2633 61.8577 43.6299 67.5629 39.3462 70.4955C38.5407 71.0469 37.5456 71.6669 36.9358 72.4398C35.9548 73.6831 35.1321 74.8198 33.5663 75.4509C27.9131 77.7294 19.6091 78.9643 14.9395 83.1248C12.658 85.1575 9.61523 86.1968 7.16386 87.9598C6.2243 88.6355 5.08177 89.1383 4.24369 89.9729C3.59547 90.6184 2.83307 91.0368 2.26523 91.7279C1.5112 92.6456 -2.43129 107.792 2.26523 108.831C3.76553 109.163 3.7789 109.935 5.26315 109.64C7.6396 109.166 10.18 109.141 12.6068 109.141C15.0918 109.141 17.45 108.688 19.8467 108.091C21.9362 107.571 24.4354 107.902 26.5942 107.902C27.8973 107.902 28.9603 108.745 30.2142 108.831C31.1704 108.897 32.1877 109.504 33.1344 109.726C37.7565 110.809 41.9944 108.411 46.2665 107.317C48.7967 106.669 50.8806 104.903 53.3509 104.22C55.6384 103.587 57.7198 101.776 59.7269 100.555C61.7086 99.3488 63.6092 97.848 65.6364 96.7521C69.3608 94.7388 71.3903 90.5702 71.3903 86.6005C71.3903 85.612 71.1145 84.7261 71.0793 83.7787C70.9814 81.1465 68.2951 79.3683 66.8459 77.4812C64.9105 74.9609 64.0813 72.9801 64.0813 69.6524C64.0813 65.2965 64.7599 61.0992 64.8588 56.765C64.8817 55.764 65.148 54.4708 65.55 53.556C65.9587 52.6258 65.8037 51.5392 66.3362 50.5966C67.2238 49.0253 67.0467 47.1885 67.6235 45.5293C67.8677 44.8268 68.0854 44.4843 68.6689 44.0324C70.8119 42.3727 71.222 38.5939 72.3234 36.1262C73.2729 33.9988 72.9454 31.4102 72.9454 29.1147C72.9454 28.0067 72.7899 26.9385 72.7899 25.8283C72.7899 22.6801 72.3234 19.6012 72.3234 16.4595C72.3234 14.8037 71.9729 13.2534 71.5113 11.702C71.0897 10.2851 70.7393 8.91343 69.4378 8.08871C68.7504 7.65315 68.2343 7.4753 67.5056 7.22416L67.468 7.2112C62.5523 5.51681 57.6244 3.96094 52.6079 2.41068C49.679 1.50555 46.8802 0.788819 43.882 0.208285C39.5193 -0.636434 35.357 1.3611 31.1127 1.3611C27.3789 1.3611 24.722 4.35737 21.6265 5.8175C20.8903 6.16475 20.348 6.71701 19.6912 7.09075C17.8981 8.11107 18.8472 11.117 20.8144 11.117Z" fill="#EAEDFB"/>
<path fill-rule="evenodd" clip-rule="evenodd" d="M67.3636 25.511C67.5354 24.5824 67.6225 23.6068 67.6039 22.5619L68.0038 22.5548C68.0229 23.6268 67.9335 24.6292 67.7569 25.5838L67.3636 25.511ZM67.2923 19.612C67.2041 19.1409 67.0963 18.6554 66.9674 18.1543L67.3548 18.0547C67.4858 18.564 67.5956 19.0581 67.6855 19.5385L67.2923 19.612ZM65.2916 31.0601C65.7662 30.1659 66.1925 29.2747 66.5461 28.3585L66.9193 28.5025C66.5582 29.4379 66.1244 30.3442 65.6449 31.2476L65.2916 31.0601ZM63.5382 34.1335C63.6308 33.9766 63.7228 33.8207 63.8141 33.6656L64.1588 33.8685C64.0671 34.0243 63.9748 34.1807 63.8821 34.3379C63.476 35.0264 63.0611 35.7298 62.6465 36.4609L62.2985 36.2636C62.715 35.5292 63.132 34.8222 63.5382 34.1335ZM60.8918 47.8582C60.9714 46.8436 60.9958 45.8392 60.9533 44.8542L61.3529 44.837C61.3962 45.8401 61.3713 46.8608 61.2906 47.8895L60.8918 47.8582ZM60.2339 40.2916C60.4442 39.8227 60.6597 39.3676 60.8788 38.9245L61.2373 39.1019C61.031 39.5191 60.828 39.947 60.6297 40.3868C60.7703 40.8501 60.8891 41.3215 60.9877 41.7997L60.5959 41.8804C60.4947 41.3892 60.3717 40.9061 60.2253 40.4325L60.2031 40.3604L60.2339 40.2916ZM59.892 53.7976C60.1322 52.8187 60.3424 51.8319 60.5121 50.8456L60.9063 50.9134C60.7348 51.9101 60.5226 52.9061 60.2804 53.893L59.892 53.7976ZM58.149 59.5816C58.4753 58.6475 58.7926 57.687 59.0896 56.7091L59.4723 56.8253C59.1735 57.8093 58.8544 58.7751 58.5266 59.7135L58.149 59.5816ZM55.9976 65.2393C56.352 64.3557 56.7272 63.4122 57.1063 62.4219L57.4798 62.5649C57.0996 63.5582 56.7235 64.5039 56.3689 65.3882L55.9976 65.2393ZM56.6182 83.4856C56.6306 83.021 56.605 82.5447 56.5381 82.0567C56.4592 81.4805 56.3591 80.9546 56.244 80.4702L56.6331 80.3777C56.7513 80.8748 56.8538 81.4134 56.9344 82.0025C57.0042 82.5116 57.031 83.0095 57.0181 83.4962L56.6182 83.4856ZM54.6755 88.7696C55.26 87.982 55.732 87.1498 56.0646 86.2719L56.4386 86.4137C56.0912 87.3306 55.6001 88.1949 54.9968 89.008L54.6755 88.7696ZM54.817 76.663C54.4489 75.8902 54.1064 75.1711 53.8969 74.3955L54.2831 74.2912C54.4822 75.0287 54.8032 75.7028 55.1666 76.4662C55.2876 76.7202 55.4132 76.9841 55.5406 77.2634L55.1767 77.4294C55.0565 77.1659 54.9354 76.9117 54.817 76.663ZM54.3396 69.4762C54.4932 69.0434 54.6729 68.5686 54.8723 68.0571L55.245 68.2024C55.0463 68.712 54.8682 69.1826 54.7165 69.6102C54.5154 70.1755 54.3679 70.6867 54.2658 71.1546L53.875 71.0693C53.9813 70.5824 54.1337 70.055 54.3396 69.4762ZM54.3396 69.4762L54.4338 69.5098ZM50.4538 92.6819C51.2678 92.1218 52.0333 91.5256 52.7296 90.8927L52.9986 91.1886C52.287 91.8355 51.507 92.4427 50.6806 93.0114L50.4538 92.6819ZM45.3816 95.5095C46.2605 95.1065 47.1329 94.6711 47.9804 94.2028L48.1739 94.5529C47.3166 95.0266 46.4351 95.4664 45.5483 95.8731L45.3816 95.5095ZM39.9531 97.6185C40.8379 97.3285 41.7605 97.0026 42.6979 96.6399L42.8423 97.0129C41.8977 97.3784 40.9685 97.7067 40.0776 97.9986L39.9531 97.6185ZM37.1664 98.4551L37.2717 98.841C36.1949 99.1349 35.8179 99.491 34.9329 100.113L34.703 99.7853C35.9091 98.9381 35.6426 98.871 37.1664 98.4551ZM29.6581 101.561C30.6153 101.386 31.4981 101.173 32.285 100.918L32.4082 101.299C31.6007 101.56 30.7002 101.777 29.7302 101.954L29.6581 101.561ZM24.2457 102.155C25.1788 102.104 26.0888 102.034 26.9634 101.941L27.0054 102.339C26.1231 102.432 25.2063 102.503 24.2674 102.554L24.2457 102.155ZM18.7871 102.255C19.7004 102.266 20.6141 102.265 21.5179 102.25L21.5248 102.65C20.6166 102.665 19.699 102.666 18.7822 102.655L18.7871 102.255ZM13.3264 102.058C14.2181 102.11 15.1317 102.154 16.0563 102.188L16.0417 102.587C15.114 102.553 14.1976 102.509 13.3033 102.457L13.3264 102.058ZM9.24144 101.761C9.68262 101.799 10.136 101.837 10.5996 101.873L10.5686 102.272C10.1037 102.236 9.64901 102.198 9.20656 102.159L9.24144 101.761Z" fill="#043CA1"/>
<path d="M22.8935 103.826C22.0179 103.826 21.3081 103.119 21.3081 102.247C21.3081 101.375 22.0179 100.668 22.8935 100.668C23.7692 100.668 24.479 101.375 24.479 102.247C24.479 103.119 23.7692 103.826 22.8935 103.826Z" fill="#F4F8FF"/>
<path fill-rule="evenodd" clip-rule="evenodd" d="M22.3081 102.247C22.3081 102.563 22.5662 102.826 22.8935 102.826C23.2209 102.826 23.479 102.563 23.479 102.247C23.479 101.931 23.2209 101.668 22.8935 101.668C22.5662 101.668 22.3081 101.931 22.3081 102.247ZM21.3081 102.247C21.3081 103.119 22.0179 103.826 22.8935 103.826C23.7692 103.826 24.479 103.119 24.479 102.247C24.479 101.375 23.7692 100.668 22.8935 100.668C22.0179 100.668 21.3081 101.375 21.3081 102.247Z" fill="#022563"/>
<path d="M52.7514 92.5768C51.8758 92.5768 51.166 91.8699 51.166 90.998C51.166 90.126 51.8758 89.4192 52.7514 89.4192C53.6271 89.4192 54.3369 90.126 54.3369 90.998C54.3369 91.8699 53.6271 92.5768 52.7514 92.5768Z" fill="#F4F8FF"/>
<path fill-rule="evenodd" clip-rule="evenodd" d="M52.166 90.998C52.166 91.3136 52.4241 91.5768 52.7514 91.5768C53.0788 91.5768 53.3369 91.3136 53.3369 90.998C53.3369 90.6823 53.0788 90.4192 52.7514 90.4192C52.4241 90.4192 52.166 90.6823 52.166 90.998ZM51.166 90.998C51.166 91.8699 51.8758 92.5768 52.7514 92.5768C53.6271 92.5768 54.3369 91.8699 54.3369 90.998C54.3369 90.126 53.6271 89.4192 52.7514 89.4192C51.8758 89.4192 51.166 90.126 51.166 90.998Z" fill="#022563"/>
<path d="M57.9248 63.1532C57.0491 63.1532 56.3393 62.4463 56.3393 61.5744C56.3393 60.7024 57.0491 59.9956 57.9248 59.9956C58.8004 59.9956 59.5103 60.7024 59.5103 61.5744C59.5103 62.4463 58.8004 63.1532 57.9248 63.1532Z" fill="#F4F8FF"/>
<path fill-rule="evenodd" clip-rule="evenodd" d="M57.3393 61.5744C57.3393 61.8901 57.5974 62.1532 57.9248 62.1532C58.2521 62.1532 58.5103 61.8901 58.5103 61.5744C58.5103 61.2587 58.2521 60.9956 57.9248 60.9956C57.5974 60.9956 57.3393 61.2587 57.3393 61.5744ZM56.3393 61.5744C56.3393 62.4463 57.0491 63.1532 57.9248 63.1532C58.8004 63.1532 59.5103 62.4463 59.5103 61.5744C59.5103 60.7024 58.8004 59.9956 57.9248 59.9956C57.0491 59.9956 56.3393 60.7024 56.3393 61.5744Z" fill="#022563"/>
<path d="M60.9424 41.5848C60.0667 41.5848 59.3569 40.878 59.3569 40.006C59.3569 39.1341 60.0667 38.4272 60.9424 38.4272C61.818 38.4272 62.5278 39.1341 62.5278 40.006C62.5278 40.878 61.818 41.5848 60.9424 41.5848Z" fill="#F4F8FF"/>
<path fill-rule="evenodd" clip-rule="evenodd" d="M60.3569 40.006C60.3569 40.3217 60.615 40.5848 60.9424 40.5848C61.2697 40.5848 61.5278 40.3217 61.5278 40.006C61.5278 39.6904 61.2697 39.4272 60.9424 39.4272C60.615 39.4272 60.3569 39.6904 60.3569 40.006ZM59.3569 40.006C59.3569 40.878 60.0667 41.5848 60.9424 41.5848C61.818 41.5848 62.5278 40.878 62.5278 40.006C62.5278 39.1341 61.818 38.4272 60.9424 38.4272C60.0667 38.4272 59.3569 39.1341 59.3569 40.006Z" fill="#022563"/>
<path fill-rule="evenodd" clip-rule="evenodd" d="M61.8566 14.0412C61.8566 15.934 63.3987 17.4757 65.3099 17.4757C67.2211 17.4757 68.7632 15.934 68.7632 14.0412C68.7632 12.1483 67.2211 10.6067 65.3099 10.6067C63.3987 10.6067 61.8566 12.1483 61.8566 14.0412ZM60.8566 14.0412C60.8566 16.4903 62.8504 18.4757 65.3099 18.4757C67.7694 18.4757 69.7632 16.4903 69.7632 14.0412C69.7632 11.5921 67.7694 9.60669 65.3099 9.60669C62.8504 9.60669 60.8566 11.5921 60.8566 14.0412Z" fill="#022563"/>
<path d="M68.7031 14.0409L66.3586 14.7995L66.3586 17.2542L64.9097 15.2683L62.5652 16.0269L64.0141 14.0409L62.5652 12.055L64.9097 12.8136L66.3586 10.8276L66.3586 13.2824L68.7031 14.0409Z" fill="#022563"/>
<path fill-rule="evenodd" clip-rule="evenodd" d="M3.17497 101.961C3.17497 103.854 4.71706 105.395 6.62825 105.395C8.53945 105.395 10.0815 103.854 10.0815 101.961C10.0815 100.068 8.53945 98.5264 6.62825 98.5264C4.71706 98.5264 3.17497 100.068 3.17497 101.961ZM2.17497 101.961C2.17497 104.41 4.16877 106.395 6.62825 106.395C9.08774 106.395 11.0815 104.41 11.0815 101.961C11.0815 99.5118 9.08774 97.5264 6.62825 97.5264C4.16877 97.5264 2.17497 99.5118 2.17497 101.961Z" fill="#022563"/>
<path d="M10.0215 101.961L7.67699 102.719L7.67699 105.174L6.22802 103.188L3.88352 103.947L5.3325 101.961L3.88352 99.9749L6.22802 100.733L7.67699 98.7476L7.67699 101.202L10.0215 101.961Z" fill="#022563"/>
</svg>
