<svg width="90" height="133" viewBox="0 0 90 133" fill="none" xmlns="http://www.w3.org/2000/svg">
<path d="M35.671 128.497C34.9252 129.844 33.9063 123.766 33.9063 122.782C34.3965 122.291 35.2874 122.432 35.2874 121.657C35.2874 120.718 35.0947 120.544 34.4725 119.982L34.4626 119.973C33.952 119.512 32.7122 120.011 32.0841 120.011C31.6325 120.011 29.9356 120.141 29.7728 119.569C29.5491 118.783 30.4798 117.446 30.9716 116.894C31.3053 116.52 31.6626 116.221 32.0074 115.855C32.3323 115.51 32.915 115.054 33.1199 114.643C33.4706 113.939 34.2544 112.481 33.5611 111.699C33.0696 111.144 33.0607 110.786 32.18 110.833C31.5948 110.864 30.3173 111.836 30.1181 110.737C29.9271 109.683 30.3998 108.862 30.4537 107.889C30.4753 107.5 31.01 107.196 31.1826 106.85C31.3831 106.447 31.3169 105.994 31.3169 105.551C31.3169 104.856 28.4223 104.283 27.8643 104.252C27.1868 104.214 26.4304 103.59 25.7927 103.251C25.2541 102.965 25.8538 101.155 26.0613 100.798C26.9799 99.218 28.9001 99.8484 28.9001 97.7575C28.9001 97.4305 29.1401 97.0932 29.2837 96.805C29.7335 95.9026 30.107 94.795 31.0675 94.2939C32.3582 93.6206 33.1699 92.5514 34.6352 92.2638C35.925 92.0107 37.186 91.7915 38.4906 92.0907C38.9918 92.2056 39.3056 92.6487 39.8141 92.6487H41.4924C42.246 92.6487 42.9294 92.0899 43.0653 91.3402C43.1785 90.7158 42.8816 86.5886 44.2641 87.3185C45.0525 87.7348 46.1696 88.3021 46.5946 87.1935C47.0351 86.0446 46.4319 85.5994 45.952 84.8555C45.4835 84.1291 44.9074 83.3221 45.6451 82.5079C46.1147 81.9898 46.3737 81.2575 46.8919 80.7376C47.261 80.3674 47.6679 79.9827 47.8797 79.4869C48.1889 78.7632 49.5251 78.1271 49.6156 77.3702C49.6583 77.0134 49.9975 76.9172 50.1335 76.6101C50.3565 76.1067 50.3061 75.5588 50.3061 75.0227C50.3061 72.792 46.9869 74.6831 46.5083 75.7635C45.9251 77.08 45.2661 78.242 44.4367 79.4484C43.7982 80.3772 42.7261 81.3919 41.5979 81.3919C39.8339 81.3919 38.3134 83.6632 36.5341 81.6998C36.1661 81.2936 36.7181 79.5023 36.6588 78.9673C36.5216 77.7285 34.5005 78.3438 33.6474 77.6781C32.8793 77.0788 31.8122 77.0672 31.8348 75.8693C31.8642 74.3041 32.6558 72.3864 34.4626 72.3864C35.4245 72.3864 36.0754 73.2506 37.0137 73.5121C37.8316 73.7401 39.5093 73.5815 39.91 72.7328C40.4429 71.6042 41.3062 72.2434 42.183 71.6937C44.0955 70.4946 46.414 66.9854 47.9277 66.4598C49.726 65.8353 51.3419 65.5522 51.3419 63.458C51.3419 62.4086 50.8901 58.0124 52.5503 58.0124H55.3508C56.2145 58.0124 56.698 57.4276 57.595 57.7045C58.62 58.0209 59.5231 58.1425 60.4913 58.6281C60.9488 58.8576 61.1478 59.6331 61.5271 60.0136C61.8609 60.3484 62.1341 60.6432 62.3998 61.043C63.9246 63.3376 61.2338 65.5619 59.5898 66.8446C58.8738 67.4033 58.799 69.0191 59.7049 69.2788C60.0564 69.3796 59.9269 69.7951 59.983 70.0485C60.0769 70.4722 60.8382 70.8191 61.1818 71.001C62.0013 71.4349 62.3318 71.8669 63.2917 71.8669L63.3587 71.8669C64.2129 71.8671 64.9361 71.8672 65.7565 71.6168C66.6474 71.3447 67.1611 71.0196 67.9144 70.443C68.4892 70.0029 68.8141 69.6155 69.5448 69.6155H71.4533C71.7534 69.6155 71.9094 69.944 72.2301 69.9619C73.1679 70.0142 73.1292 71.3474 74.129 71.3474C75.4103 71.3474 76.3811 70.4129 77.6008 70.2217C78.584 70.0676 79.5437 70.1674 80.5163 69.9234C80.793 69.854 81.9497 69.9036 82.07 69.6925C82.603 68.7568 84.1416 68.8611 83.7579 67.3642C83.4176 66.0365 82.4536 66.3251 81.3028 66.3251C80.2076 66.3251 79.0537 66.4983 77.9269 66.4983C77.0579 66.4983 76.7851 65.5101 76.3732 64.9011C74.987 62.8517 75.3423 60.1616 74.0331 58.0124C73.7206 57.4994 73.1637 57.0743 73.1029 56.4634C73.0334 55.767 73.4809 55.1103 73.6495 54.4525C73.9277 53.3672 74.3017 52.7808 74.3017 51.6431C74.3017 50.9007 74.0167 50.3865 73.6495 49.7381C73.4356 49.3604 72.8435 48.7884 72.7576 48.4008C72.5028 47.2506 71.9292 45.9605 71.8849 44.7159C71.8454 43.6079 72.3073 43.3685 72.9974 42.6762C73.5889 42.0828 73.116 40.9811 73.2755 40.2613C73.5597 38.9781 74.1892 38.3731 75.5101 38.4429C76.3184 38.4855 76.8724 39.9348 77.2364 40.4825C77.9131 41.5009 78.6381 42.1648 79.5573 42.9552C79.9305 43.2762 79.487 44.0072 79.3079 44.2925C79.0344 44.7284 78.8563 45.7051 78.7996 46.2168C78.6718 47.3705 79.0606 47.8892 79.8642 48.6221C80.3213 49.0389 81.7598 49.3164 82.1467 48.6509C82.7528 47.6087 82.8446 46.0509 82.2426 44.9853C81.8674 44.3209 81.7334 43.6347 81.2932 42.9552C80.8555 42.2797 80.6374 41.5293 80.2094 40.8674C79.5677 39.8748 80.1727 38.7185 80.5931 37.8367C81.1793 36.607 81.8905 36.3771 81.5617 34.8926C81.3033 33.726 80.3437 32.8039 80.3437 31.5156C80.3437 31.0153 80.8827 30.0534 81.2069 29.6876C81.7434 29.082 81.6291 27.9675 81.5425 27.1861C81.3488 25.4369 79.8243 25.3677 78.2722 25.4542C75.8509 25.5892 76.2391 29.7838 74.0331 29.7838C72.5583 29.7838 72.652 29.4351 72.5754 28.052C72.5175 27.0066 72.3658 26.4796 72.9206 25.4542C73.429 24.5148 74.3703 23.8021 74.9059 22.8469C75.527 21.7392 75.6729 20.3016 76.7185 19.4025C77.7142 18.5463 78.6174 18.539 78.6174 17.0261C78.6174 15.9524 78.301 14.4339 78.9627 13.5047C79.4842 12.7723 80.5092 12.3855 81.3795 12.7735C81.7817 12.9528 82.5253 12.9599 82.9715 13.0718C84.1283 13.3619 85.2731 13.5393 86.3857 13.9858C87.3372 14.3676 89.0077 13.8809 89.5794 13.0525C90.143 12.2358 90.0264 11.1686 89.8767 10.2527C89.7027 9.18803 88.9072 9.011 88.1025 8.47282C87.1893 7.86212 86.2684 7.61653 85.1869 7.61653C84.2924 7.61653 83.5602 8.00358 82.6646 8.09759C81.2303 8.24818 80.3651 7.40535 79.0394 7.44335C77.6648 7.48275 72.748 11.1386 72.748 13.0718C72.748 14.0443 73.4255 15.0347 73.6016 16.0062C73.7363 16.7494 73.171 18.2219 72.748 18.8349C72.2973 19.488 71.7487 19.8314 71.2327 20.2973C70.905 20.5931 71.0217 21.2278 71.0217 21.6058C71.0217 22.293 69.2595 23.0946 68.8638 23.809C68.3656 24.7088 68.6132 26.1112 67.876 26.8782C66.8578 27.9375 65.8193 27.8265 64.5385 27.3592C63.871 27.1157 63.8062 25.6627 63.426 25.0694C62.9034 24.2539 63.0773 23.3986 62.4286 22.7218C61.3769 21.6245 59.8109 22.46 59.0335 23.4626C58.4384 24.2302 58.0897 25.3705 57.125 25.8006C55.6324 26.4661 53.3113 25.831 52.3777 24.4536C52.0756 24.0079 51.6564 23.1278 51.6872 22.5871C51.7109 22.1703 52.2051 22.1086 52.2051 21.5577C52.2051 20.0536 49.7812 20.5062 48.9251 20.913C48.0478 21.3299 47.9903 23.2876 47.1125 23.9726C45.9599 24.8719 43.5751 23.0037 42.72 22.4139C41.8447 21.8102 41.0765 20.8273 40.2936 20.0856C39.5854 19.4146 39.5492 18.4619 39.6031 17.4879C39.6494 16.6516 41.353 16.7718 41.1472 15.8427C41.0411 15.3636 40.8115 15.0626 40.8115 14.5053V13.4181C40.8115 12.5934 41.9752 12.6907 42.3268 11.9461C43.1223 10.2614 41.084 9.95544 40.2073 9.27138C39.632 8.8225 38.7204 8.67441 38.2604 8.09759C37.9172 7.66716 38.3947 6.15488 38.3947 5.57684C38.3947 3.90125 37.552 0.8319 35.8436 0.169726C34.8162 -0.228516 33.448 0.15151 32.4486 0.516089C31.6632 0.802596 31.9897 2.5314 32.18 3.10419C32.3587 3.64184 32.8202 4.29965 32.3143 4.80714C31.7749 5.34824 31.9786 6.58064 32.7842 6.76025C33.7067 6.96589 33.0124 8.86455 32.8322 9.38684C32.464 10.4538 31.9862 10.1404 31.1442 10.0411C30.393 9.95241 31.1694 8.36297 30.1948 8.1457C28.9786 7.87456 25.5467 8.40267 24.7186 7.65502C24.1523 7.14369 23.8576 6.4138 23.2992 5.88472C22.0172 4.67006 18.8597 6.09694 19.4438 8.00138C19.6441 8.65438 20.0595 9.25044 20.6138 9.65623C21.1166 10.0243 21.8329 9.87862 22.2538 10.3008C22.8986 10.9477 22.8668 12.3634 22.4264 13.1487C21.8216 14.2274 21.2166 15.004 21.5153 16.3526C21.7426 17.3784 21.9481 17.6611 22.9923 17.6611C23.2563 17.6611 24.0744 16.5202 24.2295 17.0646C24.6643 18.5913 25.8497 20.3045 27.0875 21.2979C27.7464 21.8267 28.498 22.2923 29.3412 22.5486C29.8015 22.6885 30.3014 23.9831 30.6072 24.3574C30.8353 24.6367 31.9214 25.5616 31.9978 25.9064C32.2802 27.1811 31.3879 27.0636 30.5496 26.6665C29.4444 26.1429 28.6275 26.4933 27.519 26.4933C26.295 26.4933 24.8715 26.2826 23.6636 26.5029C22.8264 26.6557 22.2577 28.023 21.8127 28.5811C21.0681 29.5148 20.2615 29.9121 19.0985 29.957C17.9964 29.9995 17.978 30.9771 18.0244 31.862C18.038 32.1213 18.4878 32.353 18.7149 32.3815C18.9366 32.4093 19.3594 33.5422 19.4917 33.767C20.159 34.8998 20.8507 35.473 22.0332 35.8836C22.8767 36.1765 26.6042 35.8781 24.335 37.3268C23.7985 37.6693 23.4637 37.9729 24.2007 38.2023C25.0782 38.4755 26.283 38.9935 26.6175 39.963C26.9467 40.917 26.4201 41.3153 25.6201 41.5216C24.7002 41.7589 24.1057 41.9065 23.1074 41.9065C22.5292 41.9065 21.3633 41.6594 20.9591 42.1663C20.1692 43.1568 20.9258 46.3453 21.3907 47.3713C21.566 47.7583 21.6496 48.3234 21.6496 48.7472C21.6496 49.2831 21.3889 49.1534 21.1701 49.5265C20.9369 49.9241 19.6394 50.9287 19.1944 50.604C18.6437 50.2023 19.5813 48.208 17.8614 48.7472C16.8622 49.0604 16.7271 49.5646 16.3077 50.5463C16.0563 51.1347 15.9368 52.0014 15.224 52.2589C14.5273 52.5105 13.8869 52.5062 13.1908 52.8554C12.5455 53.1791 12.85 54.8951 12.2413 54.8951C11.8528 54.8951 11.3563 54.8108 11.0137 54.6257C10.6017 54.4032 9.84552 53.7081 9.39291 53.6828C8.70412 53.6444 7.09214 54.9806 6.63083 55.5012C6.0616 56.1437 6.56086 56.9548 7.06241 57.5698C7.845 58.5294 8.55849 61.1296 6.59247 61.1296C5.83707 61.1296 4.22773 61.3708 4.0318 62.2553C3.90764 62.8158 3.28945 63.5542 2.73707 63.5542C0.550111 63.5542 0.927822 66.4527 2.15205 67.3738C2.98521 68.0007 3.59148 68.3761 4.21402 69.2307C4.55592 69.7 5.22482 70.388 5.2498 71.0395C5.32008 72.8728 2.83298 72.7432 2.83298 74.4839C2.83298 75.6983 3.09599 76.2771 3.48514 77.3702C3.6804 77.9187 5.06325 79.4687 4.42501 80.0449C3.90112 80.5179 2.87273 80.4247 2.40141 81.0551C1.93606 81.6776 1.69624 82.8609 2.00819 83.6432C2.47518 84.8145 2.70327 85.2019 3.95507 85.2019C4.86067 85.2019 5.94031 85.1603 5.94031 83.9896C5.94031 83.2136 5.98846 82.2382 6.32394 81.5651C6.62498 80.9611 7.98232 80.54 8.01187 80.0064C8.07126 78.934 8.48655 78.9673 9.47922 78.9673C9.88866 78.9673 10.686 79.3372 11.0808 79.4869C11.6739 79.7117 11.878 79.9105 11.8001 80.5356C11.6153 82.0188 10.5798 82.9702 10.1218 84.2975C9.90685 84.9204 10.2566 86.3182 10.8603 86.5873C11.7792 86.9971 12.8634 86.7045 13.8429 87.0684C14.6065 87.3521 15.4015 88.0997 15.4349 88.9734C15.499 90.643 12.1159 92.3584 14.1402 93.9379C14.7133 94.3851 15.943 94.988 15.0897 95.9391C14.3856 96.7239 13.7505 97.2334 14.0155 98.3637C14.1097 98.7652 13.922 99.2525 14.2265 99.576C14.5272 99.8953 15.2544 100.05 15.4254 100.365C15.7834 101.023 15.8635 101.598 15.6939 102.347C15.5528 102.97 15.6224 103.859 15.3966 104.425C15.1321 105.088 14.7269 106.503 13.795 106.503C12.6905 106.503 12.4441 107.365 11.9824 108.225C11.2444 109.6 10.8174 109.274 9.52718 109.274C8.62017 109.274 8.57919 108.509 8.31877 107.889C8.08435 107.33 7.54767 105.758 6.72674 105.993C6.10421 106.172 5.94031 108.073 5.94031 108.581C5.94031 109.858 6.03315 110.79 5.38406 111.91C5.0782 112.438 4.86571 112.982 4.25238 113.219C4.04399 113.299 3.57649 113.634 3.53309 113.873C3.34683 114.901 4.83961 117.689 3.00561 117.587C2.18385 117.541 1.20087 117.172 0.349031 117.5C-0.43005 117.801 0.255519 118.972 0.847739 118.972C1.55355 118.972 2.53352 118.78 2.96725 119.492C3.22042 119.907 4.16741 120.892 3.65777 121.532C3.16049 122.155 3.49231 123.223 2.74667 123.821C2.31625 124.167 1.45194 124.87 1.45194 125.418C1.45194 125.988 1.32355 126.246 1.96983 126.246C2.78378 126.246 3.28982 126.099 4.05098 125.813C5.23685 125.367 6.33345 124.942 7.48439 124.437C8.32949 124.066 9.04765 123.731 9.04765 122.744C9.04765 122.245 8.81479 120.877 9.56554 120.877C10.328 120.877 11.229 121.094 11.733 120.444C12.2018 119.84 12.8764 119.492 13.6319 119.492C14.3831 119.492 16.6311 121.871 17.1229 122.474C17.4859 122.92 17.8327 124.296 18.408 123.206C19.0944 121.905 21.1127 125.015 21.3811 125.553C21.8331 126.46 22.0649 126.406 22.858 126.804C23.4965 127.124 24.0491 127.664 24.6802 128.016C25.0767 128.237 25.9883 129.22 26.138 129.633C26.2685 129.993 26.7365 130.382 26.8189 130.672C26.9035 130.969 26.9568 131.384 27.1738 131.615C27.7042 132.178 28.1064 133 28.9864 133C29.8914 133 30.7107 132.966 31.5662 132.654C33.3987 131.985 34.8976 130.884 36.6684 130.094C37.8566 129.565 39.1511 128.497 40.5622 128.497C41.9209 128.497 42.1013 127.788 42.0199 126.727C41.9452 125.752 40.2158 126.765 39.6031 126.765C38.0155 126.765 36.523 126.959 35.671 128.497Z" fill="#EAEDFB"/>
<path fill-rule="evenodd" clip-rule="evenodd" d="M44.7924 49.8052C44.7402 49.3968 44.6527 48.948 44.5265 48.4548L44.914 48.3556C45.0436 48.8621 45.1345 49.3271 45.1892 49.7545L44.7924 49.8052ZM42.3887 53.834C43.3523 53.558 44.0735 53.1226 44.4779 52.3838L44.8288 52.5758C44.3522 53.4465 43.5141 53.9278 42.4989 54.2185L42.3887 53.834ZM38.7514 54.3405C39.0703 54.3145 39.3838 54.289 39.6888 54.2613L39.7248 54.6597C39.4124 54.688 39.0954 54.7138 38.775 54.74C38.1809 54.7884 37.5747 54.8378 36.9626 54.9057L36.9185 54.5081C37.5357 54.4397 38.1532 54.3893 38.7514 54.3405ZM31.5612 56.1127C32.3623 55.5964 33.2442 55.2458 34.1579 54.9986L34.2624 55.3847C33.3774 55.6241 32.5359 55.9604 31.7779 56.449L31.5612 56.1127ZM29.0482 67.0625C29.4031 66.2225 29.6208 65.2516 29.6269 64.0694L30.0269 64.0715C30.0205 65.3041 29.793 66.3274 29.4166 67.2182L29.0482 67.0625ZM28.8461 59.3423C29.0499 58.8836 29.2808 58.4684 29.5356 58.0923L29.8667 58.3167C29.6383 58.6539 29.4291 59.0259 29.2421 59.4369C29.3985 59.9513 29.5294 60.4407 29.6368 60.9072L29.247 60.9969C29.1369 60.5187 29.0013 60.0146 28.8377 59.4822L28.8157 59.4107L28.8461 59.3423ZM26.2678 70.7337C26.6382 70.3619 27.0002 69.9947 27.3424 69.615L27.6395 69.8828C27.29 70.2706 26.9217 70.644 26.5513 71.016C26.505 71.0624 26.4588 71.1088 26.4125 71.1552C26.0871 71.4816 25.7615 71.8082 25.4425 72.1475L25.151 71.8736C25.4744 71.5296 25.8045 71.1985 26.1296 70.8725C26.1758 70.8261 26.2219 70.7799 26.2678 70.7337ZM22.5638 75.8861C22.7506 75.3552 22.9741 74.8693 23.225 74.4186L23.5745 74.6132C23.334 75.0452 23.12 75.5105 22.9411 76.0189C22.7612 76.5293 22.6051 77.0416 22.4705 77.5559L22.0836 77.4546C22.2208 76.93 22.3802 76.4072 22.5638 75.8861ZM22.6581 75.9194L22.5638 75.8861C22.5638 75.886 22.5638 75.8861 22.5638 75.8861M23.0471 103.986C23.161 103.134 23.1951 102.045 23.1061 100.509L23.5054 100.486C23.5954 102.037 23.562 103.154 23.4436 104.039L23.0471 103.986ZM22.7791 97.0107C22.7137 96.4651 22.639 95.8836 22.5543 95.2629C22.4809 94.7253 22.4054 94.1896 22.3297 93.6555L22.7257 93.5993C22.8015 94.1336 22.8771 94.6701 22.9506 95.2088C23.0356 95.8315 23.1106 96.4151 23.1762 96.9631L22.7791 97.0107ZM21.384 108.953C21.5835 108.286 21.7905 107.751 21.9891 107.275L22.3583 107.429C22.163 107.897 21.9615 108.418 21.7673 109.067L21.384 108.953ZM21.883 90.4364C21.7411 89.3509 21.6148 88.2723 21.5209 87.2008L21.9194 87.1658C22.0126 88.2297 22.1382 89.3024 22.2796 90.3846L21.883 90.4364ZM21.3528 83.9423C21.3425 82.8469 21.3855 81.7583 21.501 80.6767L21.8988 80.7192C21.7852 81.7831 21.7426 82.856 21.7528 83.9386L21.3528 83.9423Z" fill="#043CA1"/>
<path fill-rule="evenodd" clip-rule="evenodd" d="M16.6936 114.13C16.6947 116.189 18.3585 117.852 20.403 117.851C22.4475 117.85 24.1095 116.185 24.1084 114.127C24.1074 112.068 22.4436 110.405 20.3991 110.406C18.3545 110.407 16.6926 112.072 16.6936 114.13ZM15.6936 114.131C15.695 116.739 17.8037 118.852 20.4035 118.851C23.0033 118.85 25.1098 116.734 25.1084 114.126C25.1071 111.518 22.9984 109.405 20.3986 109.406C17.7987 109.407 15.6923 111.523 15.6936 114.131Z" fill="#022563"/>
<path d="M23.9876 114.126L21.5098 114.935L21.5112 117.55L19.9784 115.435L17.5005 116.245L19.0311 114.129L17.4983 112.015L19.977 112.821L21.5076 110.706L21.5089 113.32L23.9876 114.126Z" fill="#022563"/>
<path fill-rule="evenodd" clip-rule="evenodd" d="M41.0154 44.0807C41.0165 46.1395 42.6802 47.8022 44.7248 47.8011C46.7693 47.8001 48.4313 46.1356 48.4302 44.0767C48.4291 42.0179 46.7654 40.3552 44.7209 40.3562C42.6763 40.3573 41.0143 42.0218 41.0154 44.0807ZM40.0154 44.0812C40.0168 46.6893 42.1255 48.8025 44.7253 48.8011C47.3251 48.7998 49.4316 46.6843 49.4302 44.0762C49.4288 41.4681 47.3202 39.3549 44.7203 39.3562C42.1205 39.3576 40.014 41.473 40.0154 44.0812Z" fill="#022563"/>
<path d="M48.3094 44.0765L45.8316 44.8856L45.8329 47.4998L44.3002 45.3857L41.8223 46.1948L43.3529 44.0791L41.8201 41.965L44.2988 42.7715L45.8293 40.6558L45.8307 43.27L48.3094 44.0765Z" fill="#022563"/>
<path d="M22.861 99.3867C21.9354 99.3872 21.1846 98.6348 21.1842 97.7063C21.1837 96.7777 21.9336 96.0246 22.8592 96.0241C23.7848 96.0236 24.5356 96.7759 24.536 97.7045C24.5365 98.6331 23.7866 99.3862 22.861 99.3867Z" fill="#F4F8FF"/>
<path fill-rule="evenodd" clip-rule="evenodd" d="M22.1842 97.7057C22.1843 98.085 22.4901 98.3869 22.8605 98.3867C23.2308 98.3865 23.5362 98.0843 23.536 97.705C23.5358 97.3257 23.23 97.0239 22.8597 97.0241C22.4894 97.0243 22.184 97.3265 22.1842 97.7057ZM21.1842 97.7063C21.1846 98.6348 21.9354 99.3872 22.861 99.3867C23.7866 99.3862 24.5365 98.6331 24.536 97.7045C24.5356 96.7759 23.7848 96.0236 22.8592 96.0241C21.9336 96.0246 21.1837 96.7777 21.1842 97.7063Z" fill="#022563"/>
<path d="M29.1373 62.394C28.2117 62.3945 27.461 61.6421 27.4605 60.7136C27.46 59.785 28.21 59.0319 29.1356 59.0314C30.0612 59.0309 30.8119 59.7833 30.8124 60.7118C30.8129 61.6404 30.0629 62.3935 29.1373 62.394Z" fill="#F4F8FF"/>
<path fill-rule="evenodd" clip-rule="evenodd" d="M28.4605 60.7131C28.4607 61.0923 28.7665 61.3942 29.1368 61.394C29.5071 61.3938 29.8126 61.0916 29.8124 60.7123C29.8122 60.3331 29.5064 60.0312 29.1361 60.0314C28.7658 60.0316 28.4603 60.3338 28.4605 60.7131ZM27.4605 60.7136C27.461 61.6421 28.2117 62.3945 29.1373 62.394C30.0629 62.3935 30.8129 61.6404 30.8124 60.7118C30.8119 59.7833 30.0612 59.0309 29.1356 59.0314C28.21 59.0319 27.46 59.785 27.4605 60.7136Z" fill="#022563"/>
</svg>
