<svg width="91" height="99" viewBox="0 0 91 99" fill="none" xmlns="http://www.w3.org/2000/svg">
<path d="M0.286036 7.1973C0.764433 8.89893 1.02134 10.0401 0.313254 11.7717C-0.601949 13.3994 0.723541 18.0531 1.2931 19.6619C2.68834 23.6029 4.38135 28.2155 6.0018 31.9208C6.33985 32.6938 6.92125 33.3798 7.41713 33.8207C9.27281 35.4708 9.51101 40.5279 11.527 41.723C12.3171 42.1914 13.2013 42.1236 14.0311 42.0498C15.7286 41.8988 17.3917 41.6141 19.114 41.6141C20.0041 41.6141 21.1492 41.5244 21.9923 41.9409C25.5336 43.6903 33.2724 48.1987 35.3359 53.7036C37.1277 58.4835 42.445 60.3391 43.3652 64.9217C43.9286 67.7269 44.9405 70.7473 45.8761 73.1508C46.6015 75.0144 48.1421 75.7452 49.1899 76.7933C50.4958 78.0998 50.6842 80.9259 50.2582 83.3887C50.1109 84.2399 49.9027 85.1462 50.0676 86.0994C50.2158 86.956 50.6522 87.4076 50.7685 88.3382C50.9374 89.6896 50.2046 90.0958 49.7342 90.7464C49.2769 91.379 48.1556 91.9994 47.863 92.8037C47.4176 94.0279 45.8344 94.7439 46.6178 96.8335C47.1854 98.3477 48.5142 98.108 49.3055 98.7335C49.9076 99.2093 50.8805 98.9029 51.5374 98.9029C52.1946 98.9029 53.0488 99.1631 53.6536 98.685C54.2562 98.2087 55.0905 98.0809 55.7358 97.8258C56.261 97.6183 57.0016 95.7467 57.0218 94.8126C57.075 92.3549 57.1443 89.9218 57.1443 87.4669C57.1443 85.049 58.6479 83.5469 59.1993 81.4766C59.6591 79.7502 58.8855 77.9432 59.1108 76.1399C59.2707 74.8598 60.1128 74.2174 60.6214 73.5138C61.2584 72.6326 62.2464 71.9268 62.6831 70.5852C63.4902 68.1061 64.3696 65.9419 66.1398 65.3695C66.5808 65.2269 67.3876 65.1862 67.7389 65.672C68.0815 66.146 69.2016 65.8386 69.6373 65.793C70.8148 65.6698 70.9392 62.3078 72.155 62.3078C75.1103 62.3078 74.8773 60.7813 76.0335 57.0799C76.431 55.8074 76.7783 55.5551 77.5373 55.5551C78.8124 55.5551 79.8876 56.8621 81.1505 56.8621C81.7084 56.8621 82.5613 56.7993 83.049 56.3175C83.4458 55.9254 84.0244 56.1679 84.4575 55.8213C85.5134 54.9762 85.3624 52.4191 86.3491 51.4164C86.6306 51.1303 86.7223 50.7467 87.0908 50.5451C87.4078 50.3716 87.8148 49.7292 88.0775 49.347C88.6515 48.5117 89.3036 47.3542 89.9691 46.7936C91.3378 45.6405 90.949 41.8179 90.949 39.5448C90.949 38.6037 90.218 37.1337 89.9079 36.3984C89.6107 35.6937 88.991 34.7057 88.4993 34.4742C87.8284 34.1584 87.0927 33.9212 86.4444 33.5061C84.9438 32.5454 84.6332 27.1836 83.5049 25.3254C82.9676 24.4408 82.1569 24.0697 81.5452 23.3166C80.9522 22.5865 80.6316 21.2122 79.9869 20.7026C78.439 19.4791 77.5002 17.9138 76.3737 15.9104C75.3506 14.0908 74.1298 12.8706 72.7674 11.9895C71.3475 11.0713 70.2147 8.94513 68.7391 8.33485C66.8155 7.53925 64.8418 7.53723 62.9689 6.32599C60.5093 4.73534 58.0159 2.68117 55.552 0.977106C53.9066 -0.160914 52.006 0.00898195 50.2582 0.00898195C48.9778 0.00898195 47.7568 1.33425 46.6654 2.39299C44.9604 4.04698 44.7602 8.08203 43.059 9.76283C40.6505 12.1425 39.6654 12.0812 37.3296 13.4659C35.9677 14.2733 34.7193 14.6035 33.3082 14.6035C31.3984 14.6035 28.84 15.48 27.0821 14.0589C24.6843 12.1205 20.902 8.93993 18.1954 8.93993C17.7438 8.93993 16.9651 8.48602 16.61 7.9597C16.2595 7.44023 16.052 6.71322 15.6233 6.3744C14.7657 5.69647 13.2405 5.513 12.2551 5.90244C11.3953 6.24224 10.4337 7.24425 9.74427 8.28644C9.08052 9.28983 7.55077 9.24357 6.68225 9.15776C6.21351 9.11144 5.57932 5.72319 5.45064 4.92221C5.28479 3.88987 4.89165 3.49423 4.35512 3.49423C3.34943 3.49423 2.49384 2.64188 1.54487 2.85285C0.051101 3.18492 -0.28511 5.16577 0.286036 7.1973Z" fill="#EAEDFB"/>
<path fill-rule="evenodd" clip-rule="evenodd" d="M65.3268 35.8755C65.5421 34.9156 65.6939 33.9764 65.7689 33.0669L66.1675 33.0997C66.0908 34.0305 65.9357 34.9882 65.7171 35.963L65.3268 35.8755ZM65.7271 30.2436C65.6671 29.7709 65.5779 29.3111 65.4571 28.8659L65.4398 28.8021L65.464 28.7405C65.6933 28.1559 65.6655 27.7835 65.5068 27.546L65.8394 27.3238C66.097 27.7093 66.0857 28.2188 65.8601 28.8244C65.9775 29.2689 66.0646 29.7257 66.1239 30.1931L65.7271 30.2436ZM63.5866 41.3057C63.9468 40.4064 64.2765 39.5091 64.5657 38.6207L64.946 38.7444C64.6538 39.6425 64.3209 40.5481 63.9579 41.4544L63.5866 41.3057ZM63.011 27.0525C62.2216 27.115 61.2832 27.2667 60.2239 27.4879L60.1422 27.0963C61.21 26.8734 62.1667 26.7181 62.9795 26.6538L63.011 27.0525ZM61.2172 46.5171C61.6432 45.6648 62.0591 44.8019 62.4558 43.9345L62.8195 44.1008C62.4206 44.9731 62.0027 45.8402 61.575 46.6959L61.2172 46.5171ZM58.5414 51.5871C58.989 50.7694 59.4464 49.9263 59.903 49.0647L60.2564 49.252C59.7986 50.1158 59.3403 50.9606 58.8922 51.7791L58.5414 51.5871ZM55.7896 56.6361C56.2043 55.8462 56.6658 54.9987 57.1563 54.1057L57.5068 54.2983C57.0166 55.1908 56.5566 56.0356 56.1438 56.822L55.7896 56.6361ZM57.4511 28.1452C56.5763 28.3717 55.6547 28.6242 54.6973 28.8951L54.5884 28.5102C55.5478 28.2388 56.4723 27.9854 57.3509 27.7579L57.4511 28.1452ZM54.0047 60.5813C54.1312 60.174 54.3069 59.72 54.5224 59.2256L54.8891 59.3854C54.6771 59.8716 54.5074 60.3113 54.3867 60.6999C54.2504 61.1381 54.1233 61.5289 54.005 61.8794L53.626 61.7516C53.7432 61.4041 53.8694 61.0165 54.0047 60.5813ZM52.6758 69.3779C52.6593 69.2423 52.6434 69.1115 52.6282 68.9852L53.0253 68.9371C53.0405 69.0628 53.0563 69.1932 53.0727 69.3284C53.1043 69.588 53.1379 69.8655 53.1737 70.1625L52.7766 70.2104C52.7409 69.9139 52.7073 69.6371 52.6758 69.3779ZM52.4198 65.2292C52.4887 64.8566 52.6111 64.5067 52.7845 64.05L53.1584 64.192C52.9855 64.6475 52.8748 64.968 52.8131 65.3018C52.7518 65.6335 52.7373 65.9872 52.7686 66.506L52.3693 66.5301C52.3369 65.9927 52.3505 65.6039 52.4198 65.2292ZM49.5464 30.4007C49.4388 30.4326 49.331 30.4646 49.223 30.4966L49.1093 30.1131C49.2171 30.0812 49.3248 30.0492 49.4323 30.0173C50.2493 29.775 51.0565 29.5355 51.8484 29.3028L51.9612 29.6865C51.1699 29.9191 50.3633 30.1584 49.5464 30.4007ZM46.4839 31.3051C45.5712 31.5723 44.654 31.8376 43.7393 32.0961L43.6306 31.7112C44.5437 31.4531 45.4597 31.1881 46.3716 30.9212L46.4839 31.3051ZM40.9865 32.8528C40.0489 33.1022 39.1212 33.339 38.2113 33.5578L38.1178 33.1688C39.0241 32.9509 39.9486 32.7149 40.8838 32.4663L40.9865 32.8528ZM35.4222 34.1792C34.4428 34.3776 33.496 34.5457 32.5933 34.6754L32.5365 34.2794C33.4302 34.1511 34.3693 33.9844 35.3428 33.7871L35.4222 34.1792ZM29.7361 34.9553C28.6626 35.0004 27.6883 34.9582 26.8443 34.8055L26.9155 34.4119C27.7215 34.5577 28.6644 34.6 29.7193 34.5556L29.7361 34.9553ZM24.2153 33.5335C23.8818 33.1615 23.6497 32.7123 23.53 32.182L23.9202 32.0938C24.0255 32.5605 24.2271 32.9474 24.5132 33.2665L24.2153 33.5335Z" fill="#043CA1"/>
<path fill-rule="evenodd" clip-rule="evenodd" d="M17.9022 29.5563C17.9032 31.5764 19.3187 32.9883 20.8038 32.9874C22.289 32.9865 23.7032 31.5729 23.7022 29.5528C23.7013 27.5327 22.2858 26.1208 20.8007 26.1217C19.3155 26.1226 17.9013 27.5362 17.9022 29.5563ZM16.9022 29.5569C16.9034 32.0051 18.6504 33.9887 20.8043 33.9874C22.9582 33.9861 24.7034 32.0004 24.7022 29.5522C24.7011 27.104 22.9541 25.1204 20.8002 25.1217C18.6463 25.123 16.9011 27.1087 16.9022 29.5569Z" fill="#022563"/>
<path d="M23.7739 29.5527L21.7211 30.3122L21.7222 32.766L20.4524 30.7816L18.3995 31.5411L19.6675 29.5551L18.3977 27.5707L20.4512 28.3277L21.7193 26.3418L21.7204 28.7956L23.7739 29.5527Z" fill="#022563"/>
<path fill-rule="evenodd" clip-rule="evenodd" d="M50.4022 74.6234C50.4032 76.6435 51.8187 78.0554 53.3038 78.0545C54.789 78.0536 56.2032 76.64 56.2022 74.62C56.2013 72.5999 54.7858 71.188 53.3007 71.1889C51.8155 71.1897 50.4013 72.6034 50.4022 74.6234ZM49.4022 74.624C49.4034 77.0722 51.1504 79.0558 53.3043 79.0545C55.4582 79.0532 57.2034 77.0675 57.2022 74.6194C57.2011 72.1712 55.4541 70.1876 53.3002 70.1889C51.1463 70.1901 49.4011 72.1758 49.4022 74.624Z" fill="#022563"/>
<path d="M56.2739 74.6198L54.2211 75.3793L54.2222 77.8331L52.9524 75.8487L50.8995 76.6082L52.1675 74.6223L50.8977 72.6378L52.9512 73.3949L54.2193 71.4089L54.2204 73.8628L56.2739 74.6198Z" fill="#022563"/>
<path d="M65.09 30.4932C64.3232 30.4936 63.7012 29.7874 63.7008 28.9158C63.7004 28.0442 64.3217 27.3372 65.0886 27.3368C65.8554 27.3363 66.4774 28.0425 66.4778 28.9141C66.4782 29.7857 65.8569 30.4927 65.09 30.4932Z" fill="#F4F8FF"/>
<path fill-rule="evenodd" clip-rule="evenodd" d="M64.8585 29.3705C64.9432 29.4668 65.027 29.4932 65.0896 29.4932C65.1521 29.4931 65.2358 29.4666 65.3205 29.3702C65.4069 29.272 65.4779 29.1139 65.4778 28.9147C65.4777 28.7156 65.4066 28.5576 65.3201 28.4594C65.2353 28.3632 65.1515 28.3367 65.089 28.3368C65.0265 28.3368 64.9427 28.3633 64.8581 28.4597C64.7717 28.558 64.7007 28.7161 64.7008 28.9152C64.7009 29.1143 64.772 29.2723 64.8585 29.3705ZM63.7008 28.9158C63.7012 29.7874 64.3232 30.4936 65.09 30.4932C65.8569 30.4927 66.4782 29.7857 66.4778 28.9141C66.4774 28.0425 65.8554 27.3363 65.0886 27.3368C64.3217 27.3372 63.7004 28.0442 63.7008 28.9158Z" fill="#022563"/>
<path d="M40.3898 34.187C39.623 34.1875 39.001 33.4812 39.0006 32.6096C39.0002 31.738 39.6215 31.0311 40.3884 31.0306C41.1552 31.0302 41.7772 31.7364 41.7776 32.608C41.778 33.4796 41.1567 34.1865 40.3898 34.187Z" fill="#F4F8FF"/>
<path fill-rule="evenodd" clip-rule="evenodd" d="M40.1583 33.0644C40.2431 33.1606 40.3269 33.187 40.3894 33.187C40.4519 33.187 40.5357 33.1604 40.6203 33.0641C40.7067 32.9658 40.7777 32.8077 40.7776 32.6086C40.7775 32.4094 40.7064 32.2514 40.6199 32.1533C40.5351 32.057 40.4513 32.0306 40.3888 32.0306C40.3263 32.0307 40.2425 32.0572 40.1579 32.1535C40.0715 32.2518 40.0005 32.4099 40.0006 32.609C40.0007 32.8082 40.0718 32.9662 40.1583 33.0644ZM39.0006 32.6096C39.001 33.4812 39.623 34.1875 40.3898 34.187C41.1567 34.1865 41.778 33.4796 41.7776 32.608C41.7772 31.7364 41.1552 31.0302 40.3884 31.0306C39.6215 31.0311 39.0002 31.738 39.0006 32.6096Z" fill="#022563"/>
<path d="M54.6901 60.7842C53.9233 60.7846 53.3013 60.0784 53.3009 59.2068C53.3005 58.3352 53.9218 57.6282 54.6887 57.6278C55.4555 57.6273 56.0775 58.3335 56.0779 59.2051C56.0783 60.0768 55.457 60.7837 54.6901 60.7842Z" fill="#F4F8FF"/>
<path fill-rule="evenodd" clip-rule="evenodd" d="M54.4586 59.6615C54.5433 59.7578 54.6271 59.7842 54.6897 59.7842C54.7522 59.7841 54.8359 59.7576 54.9206 59.6612C55.007 59.563 55.078 59.4049 55.0779 59.2057C55.0778 59.0066 55.0067 58.8486 54.9202 58.7504C54.8354 58.6542 54.7516 58.6277 54.6891 58.6278C54.6266 58.6278 54.5428 58.6544 54.4582 58.7507C54.3718 58.849 54.3008 59.0071 54.3009 59.2062C54.301 59.4053 54.3721 59.5633 54.4586 59.6615ZM53.3009 59.2068C53.3013 60.0784 53.9233 60.7846 54.6901 60.7842C55.457 60.7837 56.0783 60.0768 56.0779 59.2051C56.0775 58.3335 55.4555 57.6273 54.6887 57.6278C53.9218 57.6282 53.3005 58.3352 53.3009 59.2068Z" fill="#022563"/>
</svg>
