<svg width="36" height="36" viewBox="0 0 36 36" fill="none" xmlns="http://www.w3.org/2000/svg">
<path fill-rule="evenodd" clip-rule="evenodd" d="M3.5 7.5C3.5 6.94772 3.94772 6.5 4.5 6.5H31.5C32.0523 6.5 32.5 6.94772 32.5 7.5V31.5C32.5 32.0523 32.0523 32.5 31.5 32.5H4.5C3.94772 32.5 3.5 32.0523 3.5 31.5V7.5ZM5.5 8.5V30.5H30.5V8.5H5.5Z" fill="#022563"/>
<path fill-rule="evenodd" clip-rule="evenodd" d="M3.5 13.5C3.5 12.9477 3.94772 12.5 4.5 12.5H31.5C32.0523 12.5 32.5 12.9477 32.5 13.5C32.5 14.0523 32.0523 14.5 31.5 14.5H4.5C3.94772 14.5 3.5 14.0523 3.5 13.5Z" fill="#022563"/>
<path fill-rule="evenodd" clip-rule="evenodd" d="M10.5 4C10.7761 4 11 4.22386 11 4.5V7.5C11 7.77614 10.7761 8 10.5 8C10.2239 8 10 7.77614 10 7.5V4.5C10 4.22386 10.2239 4 10.5 4Z" fill="#022563"/>
<path fill-rule="evenodd" clip-rule="evenodd" d="M25.5 4C25.7761 4 26 4.22386 26 4.5V7.5C26 7.77614 25.7761 8 25.5 8C25.2239 8 25 7.77614 25 7.5V4.5C25 4.22386 25.2239 4 25.5 4Z" fill="#022563"/>
</svg>
