<svg width="22" height="14" viewBox="0 0 22 14" fill="none" xmlns="http://www.w3.org/2000/svg">
<path fill-rule="evenodd" clip-rule="evenodd" d="M3.66148 0.5H15.3385L17.3385 5.5H19C20.3807 5.5 21.5 6.61929 21.5 8V11.5H19V10.5H20.5V8C20.5 7.17157 19.8284 6.5 19 6.5H1.5V10.5H2V11.5H0.5V5.5H1.66148L3.66148 0.5ZM2.73852 5.5H5.5V1.5H4.33852L2.73852 5.5ZM6.5 1.5V5.5H10.5V1.5H6.5ZM11.5 1.5V5.5H16.2615L14.6615 1.5H11.5ZM15 11.5H6V10.5H15V11.5Z" fill="#043CA1"/>
<path fill-rule="evenodd" clip-rule="evenodd" d="M4 9.5C3.17157 9.5 2.5 10.1716 2.5 11C2.5 11.8284 3.17157 12.5 4 12.5C4.82843 12.5 5.5 11.8284 5.5 11C5.5 10.1716 4.82843 9.5 4 9.5ZM1.5 11C1.5 9.61929 2.61929 8.5 4 8.5C5.38071 8.5 6.5 9.61929 6.5 11C6.5 12.3807 5.38071 13.5 4 13.5C2.61929 13.5 1.5 12.3807 1.5 11Z" fill="#043CA1"/>
<path fill-rule="evenodd" clip-rule="evenodd" d="M17 9.5C16.1716 9.5 15.5 10.1716 15.5 11C15.5 11.8284 16.1716 12.5 17 12.5C17.8284 12.5 18.5 11.8284 18.5 11C18.5 10.1716 17.8284 9.5 17 9.5ZM14.5 11C14.5 9.61929 15.6193 8.5 17 8.5C18.3807 8.5 19.5 9.61929 19.5 11C19.5 12.3807 18.3807 13.5 17 13.5C15.6193 13.5 14.5 12.3807 14.5 11Z" fill="#043CA1"/>
</svg>
