<svg width="24" height="24" viewBox="0 0 24 24" fill="none" xmlns="http://www.w3.org/2000/svg">
<path fill-rule="evenodd" clip-rule="evenodd" d="M12 1.32422L21.5 9.96058V10.1818H21C21.5 10.1818 21.5 10.1817 21.5 10.1818V22.6818H2.5V9.96058L12 1.32422ZM20.5 10.403L12 2.67568L3.5 10.403V21.6818H20.5V10.403Z" fill="#043CA1"/>
<path fill-rule="evenodd" clip-rule="evenodd" d="M8.5 15C8.5 14.1716 9.17157 13.5 10 13.5H14C14.8284 13.5 15.5 14.1716 15.5 15V21C15.5 21.8284 14.8284 22.5 14 22.5H10C9.17157 22.5 8.5 21.8284 8.5 21V15ZM10 14.5C9.72386 14.5 9.5 14.7239 9.5 15V21C9.5 21.2761 9.72386 21.5 10 21.5H14C14.2761 21.5 14.5 21.2761 14.5 21V15C14.5 14.7239 14.2761 14.5 14 14.5H10Z" fill="#043CA1"/>
</svg>
