<svg width="48" height="48" viewBox="0 0 48 48" fill="none" xmlns="http://www.w3.org/2000/svg">
<path fill-rule="evenodd" clip-rule="evenodd" d="M11 18C11 10.8203 16.8203 5 24 5C31.1797 5 37 10.8203 37 18C37 24.0047 33.8604 30.2115 30.8362 34.8234C29.3111 37.1491 27.7876 39.1105 26.6454 40.4907C26.0738 41.1813 25.5966 41.7278 25.2609 42.1031C25.093 42.2907 24.9605 42.4357 24.869 42.5346C24.8233 42.584 24.7879 42.6219 24.7635 42.6479L24.7353 42.6779L24.7275 42.6861L24.7253 42.6884L24.7246 42.6892C24.7243 42.6894 24.7241 42.6897 24 42C23.2759 42.6897 23.2757 42.6894 23.2754 42.6892L23.2747 42.6884L23.2725 42.6861L23.2647 42.6779L23.2365 42.6479C23.2121 42.6219 23.1767 42.584 23.131 42.5346C23.0395 42.4357 22.907 42.2907 22.7391 42.1031C22.4034 41.7278 21.9262 41.1813 21.3546 40.4907C20.2124 39.1105 18.6889 37.1491 17.1638 34.8234C14.1396 30.2115 11 24.0047 11 18ZM24 42L23.2759 42.6897L24 43.45L24.7241 42.6897L24 42ZM24 40.5108C24.2965 40.1742 24.6721 39.7382 25.1046 39.2156C26.2124 37.877 27.6889 35.9759 29.1638 33.7266C32.1396 29.1885 35 23.3953 35 18C35 11.9249 30.0751 7 24 7C17.9249 7 13 11.9249 13 18C13 23.3953 15.8604 29.1885 18.8362 33.7266C20.3111 35.9759 21.7876 37.877 22.8954 39.2156C23.3279 39.7382 23.7035 40.1742 24 40.5108Z" fill="#022563"/>
<path fill-rule="evenodd" clip-rule="evenodd" d="M21 18C21 16.3431 22.3431 15 24 15C25.6569 15 27 16.3431 27 18C27 19.6569 25.6569 21 24 21C22.3431 21 21 19.6569 21 18ZM24 17C23.4477 17 23 17.4477 23 18C23 18.5523 23.4477 19 24 19C24.5523 19 25 18.5523 25 18C25 17.4477 24.5523 17 24 17Z" fill="#022563"/>
</svg>
