<svg width="24" height="24" viewBox="0 0 24 24" fill="none" xmlns="http://www.w3.org/2000/svg">
<path fill-rule="evenodd" clip-rule="evenodd" d="M1.5 5C1.5 4.72386 1.72386 4.5 2 4.5H22C22.2761 4.5 22.5 4.72386 22.5 5V19C22.5 19.2761 22.2761 19.5 22 19.5H2C1.72386 19.5 1.5 19.2761 1.5 19V5ZM2.5 5.5V18.5H21.5V5.5H2.5Z" fill="white"/>
<path fill-rule="evenodd" clip-rule="evenodd" d="M1.66553 5.37171L2.33449 4.62842L12 13.3274L21.6655 4.62842L22.3345 5.37171L12 14.6727L1.66553 5.37171Z" fill="white"/>
<path fill-rule="evenodd" clip-rule="evenodd" d="M9.37611 11.3294L2.37611 19.3294L1.62354 18.6709L8.62354 10.6709L9.37611 11.3294Z" fill="white"/>
<path fill-rule="evenodd" clip-rule="evenodd" d="M15.3761 10.6709L22.3761 18.6709L21.6235 19.3294L14.6235 11.3294L15.3761 10.6709Z" fill="white"/>
</svg>
