<svg width="20" height="21" viewBox="0 0 20 21" fill="none" xmlns="http://www.w3.org/2000/svg">
<path fill-rule="evenodd" clip-rule="evenodd" d="M7.58471 0.188765C7.84548 0.376716 8 0.678564 8 1.00001V17C8 17.4304 7.72457 17.8126 7.31623 17.9487L1.31623 19.9487C1.01128 20.0503 0.676058 19.9992 0.41529 19.8113C0.154521 19.6233 0 19.3215 0 19V3.00001C0 2.56958 0.27543 2.18744 0.683772 2.05132L6.68377 0.051324C6.98872 -0.0503253 7.32394 0.000813857 7.58471 0.188765ZM2 3.72077V17.6126L6 16.2792V2.38743L2 3.72077Z" fill="black"/>
<path fill-rule="evenodd" clip-rule="evenodd" d="M19.5847 0.188765C19.8455 0.376716 20 0.678564 20 1.00001V17C20 17.4304 19.7246 17.8126 19.3162 17.9487L13.3162 19.9487C13.0113 20.0503 12.6761 19.9992 12.4153 19.8113C12.1545 19.6233 12 19.3215 12 19V3.00001C12 2.56958 12.2754 2.18744 12.6838 2.05132L18.6838 0.051324C18.9887 -0.0503253 19.3239 0.000813857 19.5847 0.188765ZM14 3.72077V17.6126L18 16.2792V2.38743L14 3.72077Z" fill="black"/>
<path fill-rule="evenodd" clip-rule="evenodd" d="M13.0212 19.2125C12.8483 19.717 12.2991 19.9858 11.7947 19.8129L6.9133 18.1399C6.40882 17.9671 6.14002 17.4179 6.31292 16.9134V16.9134C6.48582 16.409 7.03494 16.1402 7.53942 16.3131L12.4208 17.986C12.9253 18.1589 13.1941 18.708 13.0212 19.2125V19.2125Z" fill="black"/>
<path fill-rule="evenodd" clip-rule="evenodd" d="M13.0212 3.21252C12.8483 3.717 12.2991 3.9858 11.7947 3.8129L6.9133 2.13995C6.40882 1.96705 6.14002 1.41793 6.31292 0.913445V0.913445C6.48582 0.408963 7.03494 0.140161 7.53942 0.313058L12.4208 1.98601C12.9253 2.15891 13.1941 2.70804 13.0212 3.21252V3.21252Z" fill="black"/>
</svg>
