<svg width="18" height="18" viewBox="0 0 18 18" fill="none" xmlns="http://www.w3.org/2000/svg">
<path fill-rule="evenodd" clip-rule="evenodd" d="M6.78078 2.87478C6.31626 3.45548 6 4.44031 6 6C6 8.25675 6.66191 9.28224 7.14322 9.85982C7.25964 9.99952 7.36938 10.1174 7.4845 10.241C7.50266 10.2605 7.52096 10.2801 7.53943 10.3L7.54079 10.3015C7.65733 10.427 7.82471 10.6072 7.95055 10.803C8.0862 11.014 8.24894 11.3562 8.19287 11.7887C8.13894 12.2048 7.90707 12.5071 7.70711 12.7071C7.09475 13.3195 6.35792 13.7516 5.66596 14.0976C5.31796 14.2716 4.96476 14.4316 4.63525 14.5808L4.63258 14.582C4.29778 14.7337 3.98865 14.8737 3.69721 15.0194C3.10241 15.3168 2.6781 15.5926 2.40082 15.9019C2.15351 16.1778 2 16.5045 2 17C2 17.5523 1.55228 18 1 18C0.447715 18 0 17.5523 0 17C0 15.9955 0.346491 15.1972 0.911681 14.5668C1.4469 13.9699 2.14759 13.5582 2.80279 13.2306C3.12884 13.0675 3.46781 12.914 3.7901 12.768L3.81006 12.759C4.14462 12.6075 4.46329 12.4628 4.77154 12.3087C5.24003 12.0744 5.64733 11.8359 5.98561 11.5662C5.87749 11.45 5.74413 11.305 5.60678 11.1402C4.83809 10.2178 4 8.74325 4 6C4 4.22669 4.35024 2.71152 5.21897 1.62547C6.12181 0.496796 7.44577 0 9 0C10.5542 0 11.8782 0.496796 12.781 1.62547C13.6498 2.71152 14 4.22669 14 6C14 8.74325 13.1619 10.2178 12.3932 11.1402C12.2559 11.305 12.1225 11.45 12.0144 11.5662C12.3527 11.8359 12.76 12.0744 13.2285 12.3087C13.5367 12.4628 13.8554 12.6075 14.1899 12.759L14.2099 12.768C14.5322 12.914 14.8712 13.0675 15.1972 13.2306C15.8524 13.5582 16.5531 13.9699 17.0883 14.5668C17.6535 15.1972 18 15.9955 18 17C18 17.5523 17.5523 18 17 18C16.4477 18 16 17.5523 16 17C16 16.5045 15.8465 16.1778 15.5992 15.9019C15.3219 15.5926 14.8976 15.3168 14.3028 15.0194C14.0114 14.8737 13.7022 14.7337 13.3674 14.5821L13.3648 14.5808C13.0352 14.4316 12.682 14.2716 12.334 14.0976C11.6421 13.7516 10.9052 13.3195 10.2929 12.7071C10.0929 12.5071 9.86106 12.2048 9.80713 11.7887C9.75106 11.3562 9.9138 11.014 10.0494 10.803C10.1753 10.6072 10.3427 10.427 10.4592 10.3015L10.4606 10.3C10.479 10.2801 10.4973 10.2605 10.5155 10.241C10.6306 10.1174 10.7404 9.99953 10.8568 9.85982C11.3381 9.28224 12 8.25675 12 6C12 4.44031 11.6837 3.45548 11.2192 2.87478C10.7888 2.3367 10.1128 2 9 2C7.88723 2 7.21119 2.3367 6.78078 2.87478ZM11.6939 11.2788C11.694 11.2788 11.6952 11.2801 11.6973 11.2827C11.6949 11.2801 11.6939 11.2788 11.6939 11.2788ZM6.30605 11.2788C6.30613 11.2788 6.30509 11.2801 6.30267 11.2827C6.30476 11.2801 6.30597 11.2788 6.30605 11.2788Z" fill="#043CA1"/>
</svg>
