<svg width="20" height="20" viewBox="0 0 20 20" fill="none" xmlns="http://www.w3.org/2000/svg">
<path fill-rule="evenodd" clip-rule="evenodd" d="M11.2622 16.5893C12.8519 17.4593 14.3164 18.0167 15.3518 18.35C16.1069 18.593 16.9353 18.3575 17.5306 17.7622L17.9168 17.376C18.1369 17.1559 18.1046 16.7904 17.8493 16.6123L14.2986 14.1359C14.0998 13.9973 13.8303 14.0211 13.659 14.1924L11.2622 16.5893ZM10.3664 16.0721C10.3731 16.0646 10.38 16.0572 10.3873 16.05L12.9519 13.4853C13.4659 12.9713 14.2744 12.8998 14.8706 13.3157L18.4214 15.7921C19.1872 16.3263 19.2842 17.4228 18.624 18.0831L18.2377 18.4693C17.4125 19.2946 16.2026 19.6744 15.0454 19.3019C12.9429 18.6251 9.102 17.0502 5.9082 13.8564C2.7144 10.6626 1.13953 6.82174 0.462758 4.71927C0.0902589 3.56206 0.47007 2.35218 1.2953 1.52695L1.68156 1.14069C2.34182 0.480433 3.43839 0.577397 3.97255 1.34327L6.44899 4.894C6.86481 5.49021 6.79332 6.29876 6.27933 6.81275L3.71469 9.37739C3.70745 9.38462 3.70005 9.39158 3.6925 9.39828C4.4567 10.6543 5.41736 11.9514 6.61531 13.1493C7.81326 14.3473 9.11034 15.3079 10.3664 16.0721ZM3.17538 8.50248L5.57222 6.10564C5.74355 5.93431 5.76739 5.6648 5.62878 5.46606L3.15233 1.91532C2.97428 1.66003 2.60876 1.62771 2.38867 1.8478L2.00241 2.23406C1.40712 2.82935 1.1716 3.65778 1.41466 4.41286C1.74794 5.44824 2.30533 6.91277 3.17538 8.50248Z" fill="white"/>
</svg>
